  0
SECTION
  2
HEADER
  9
$ACADVER
  1
AC1024
  9
$ACADMAINTVER
 70
6
  9
$DWGCODEPAGE
  3
ANSI_1252
  9
$LASTSAVEDBY
  1
ezdxf
  9
$INSBASE
 10
0.0
 20
0.0
 30
0.0
  9
$EXTMIN
 10
1e+20
 20
1e+20
 30
1e+20
  9
$EXTMAX
 10
-1e+20
 20
-1e+20
 30
-1e+20
  9
$LIMMIN
 10
0.0
 20
0.0
  9
$LIMMAX
 10
420.0
 20
297.0
  9
$ORTHOMODE
 70
0
  9
$REGENMODE
 70
1
  9
$FILLMODE
 70
1
  9
$QTEXTMODE
 70
0
  9
$MIRRTEXT
 70
1
  9
$LTSCALE
 40
1.0
  9
$ATTMODE
 70
1
  9
$TEXTSIZE
 40
2.5
  9
$TRACEWID
 40
1.0
  9
$TEXTSTYLE
  7
Standard
  9
$CLAYER
  8
0
  9
$CELTYPE
  6
ByLayer
  9
$CECOLOR
 62
256
  9
$CELTSCALE
 40
1.0
  9
$DISPSILH
 70
0
  9
$DIMSCALE
 40
1.0
  9
$DIMASZ
 40
2.5
  9
$DIMEXO
 40
0.625
  9
$DIMDLI
 40
3.75
  9
$DIMRND
 40
0.0
  9
$DIMDLE
 40
0.0
  9
$DIMEXE
 40
1.25
  9
$DIMTP
 40
0.0
  9
$DIMTM
 40
0.0
  9
$DIMTXT
 40
2.5
  9
$DIMCEN
 40
2.5
  9
$DIMTSZ
 40
0.0
  9
$DIMTOL
 70
0
  9
$DIMLIM
 70
0
  9
$DIMTIH
 70
0
  9
$DIMTOH
 70
0
  9
$DIMSE1
 70
0
  9
$DIMSE2
 70
0
  9
$DIMTAD
 70
1
  9
$DIMZIN
 70
8
  9
$DIMBLK
  1

  9
$DIMASO
 70
1
  9
$DIMSHO
 70
1
  9
$DIMPOST
  1

  9
$DIMAPOST
  1

  9
$DIMALT
 70
0
  9
$DIMALTD
 70
3
  9
$DIMALTF
 40
0.03937007874
  9
$DIMLFAC
 40
1.0
  9
$DIMTOFL
 70
1
  9
$DIMTVP
 40
0.0
  9
$DIMTIX
 70
0
  9
$DIMSOXD
 70
0
  9
$DIMSAH
 70
0
  9
$DIMBLK1
  1

  9
$DIMBLK2
  1

  9
$DIMSTYLE
  2
ISO-25
  9
$DIMCLRD
 70
0
  9
$DIMCLRE
 70
0
  9
$DIMCLRT
 70
0
  9
$DIMTFAC
 40
1.0
  9
$DIMGAP
 40
0.625
  9
$DIMJUST
 70
0
  9
$DIMSD1
 70
0
  9
$DIMSD2
 70
0
  9
$DIMTOLJ
 70
0
  9
$DIMTZIN
 70
8
  9
$DIMALTZ
 70
0
  9
$DIMALTTZ
 70
0
  9
$DIMUPT
 70
0
  9
$DIMDEC
 70
2
  9
$DIMTDEC
 70
2
  9
$DIMALTU
 70
2
  9
$DIMALTTD
 70
3
  9
$DIMTXSTY
  7
Standard
  9
$DIMAUNIT
 70
0
  9
$DIMADEC
 70
0
  9
$DIMALTRND
 40
0.0
  9
$DIMAZIN
 70
0
  9
$DIMDSEP
 70
44
  9
$DIMATFIT
 70
3
  9
$DIMFRAC
 70
0
  9
$DIMLDRBLK
  1

  9
$DIMLUNIT
 70
2
  9
$DIMLWD
 70
-2
  9
$DIMLWE
 70
-2
  9
$DIMTMOVE
 70
0
  9
$DIMFXL
 40
1.0
  9
$DIMFXLON
 70
0
  9
$DIMJOGANG
 40
0.785398163397
  9
$DIMTFILL
 70
0
  9
$DIMTFILLCLR
 70
0
  9
$DIMARCSYM
 70
0
  9
$DIMLTYPE
  6

  9
$DIMLTEX1
  6

  9
$DIMLTEX2
  6

  9
$DIMTXTDIRECTION
 70
0
  9
$LUNITS
 70
2
  9
$LUPREC
 70
4
  9
$SKETCHINC
 40
1.0
  9
$FILLETRAD
 40
10.0
  9
$AUNITS
 70
0
  9
$AUPREC
 70
2
  9
$MENU
  1
.
  9
$ELEVATION
 40
0.0
  9
$PELEVATION
 40
0.0
  9
$THICKNESS
 40
0.0
  9
$LIMCHECK
 70
0
  9
$CHAMFERA
 40
0.0
  9
$CHAMFERB
 40
0.0
  9
$CHAMFERC
 40
0.0
  9
$CHAMFERD
 40
0.0
  9
$SKPOLY
 70
0
  9
$TDCREATE
 40
2461017.858599537
  9
$TDUCREATE
 40
2458532.153996898
  9
$TDUPDATE
 40
2461017.858599537
  9
$TDUUPDATE
 40
2458532.1544311
  9
$TDINDWG
 40
0.0
  9
$TDUSRTIMER
 40
0.0
  9
$USRTIMER
 70
1
  9
$ANGBASE
 50
0.0
  9
$ANGDIR
 70
0
  9
$PDMODE
 70
0
  9
$PDSIZE
 40
0.0
  9
$PLINEWID
 40
0.0
  9
$SPLFRAME
 70
0
  9
$SPLINETYPE
 70
6
  9
$SPLINESEGS
 70
8
  9
$HANDSEED
  5
3E
  9
$SURFTAB1
 70
6
  9
$SURFTAB2
 70
6
  9
$SURFTYPE
 70
6
  9
$SURFU
 70
6
  9
$SURFV
 70
6
  9
$UCSBASE
  2

  9
$UCSNAME
  2

  9
$UCSORG
 10
0.0
 20
0.0
 30
0.0
  9
$UCSXDIR
 10
1.0
 20
0.0
 30
0.0
  9
$UCSYDIR
 10
0.0
 20
1.0
 30
0.0
  9
$UCSORTHOREF
  2

  9
$UCSORTHOVIEW
 70
0
  9
$UCSORGTOP
 10
0.0
 20
0.0
 30
0.0
  9
$UCSORGBOTTOM
 10
0.0
 20
0.0
 30
0.0
  9
$UCSORGLEFT
 10
0.0
 20
0.0
 30
0.0
  9
$UCSORGRIGHT
 10
0.0
 20
0.0
 30
0.0
  9
$UCSORGFRONT
 10
0.0
 20
0.0
 30
0.0
  9
$UCSORGBACK
 10
0.0
 20
0.0
 30
0.0
  9
$PUCSBASE
  2

  9
$PUCSNAME
  2

  9
$PUCSORG
 10
0.0
 20
0.0
 30
0.0
  9
$PUCSXDIR
 10
1.0
 20
0.0
 30
0.0
  9
$PUCSYDIR
 10
0.0
 20
1.0
 30
0.0
  9
$PUCSORTHOREF
  2

  9
$PUCSORTHOVIEW
 70
0
  9
$PUCSORGTOP
 10
0.0
 20
0.0
 30
0.0
  9
$PUCSORGBOTTOM
 10
0.0
 20
0.0
 30
0.0
  9
$PUCSORGLEFT
 10
0.0
 20
0.0
 30
0.0
  9
$PUCSORGRIGHT
 10
0.0
 20
0.0
 30
0.0
  9
$PUCSORGFRONT
 10
0.0
 20
0.0
 30
0.0
  9
$PUCSORGBACK
 10
0.0
 20
0.0
 30
0.0
  9
$USERI1
 70
0
  9
$USERI2
 70
0
  9
$USERI3
 70
0
  9
$USERI4
 70
0
  9
$USERI5
 70
0
  9
$USERR1
 40
0.0
  9
$USERR2
 40
0.0
  9
$USERR3
 40
0.0
  9
$USERR4
 40
0.0
  9
$USERR5
 40
0.0
  9
$WORLDVIEW
 70
1
  9
$SHADEDGE
 70
3
  9
$SHADEDIF
 70
70
  9
$TILEMODE
 70
1
  9
$MAXACTVP
 70
64
  9
$PINSBASE
 10
0.0
 20
0.0
 30
0.0
  9
$PLIMCHECK
 70
0
  9
$PEXTMIN
 10
1e+20
 20
1e+20
 30
1e+20
  9
$PEXTMAX
 10
-1e+20
 20
-1e+20
 30
-1e+20
  9
$PLIMMIN
 10
0.0
 20
0.0
  9
$PLIMMAX
 10
420.0
 20
297.0
  9
$UNITMODE
 70
0
  9
$VISRETAIN
 70
1
  9
$PLINEGEN
 70
0
  9
$PSLTSCALE
 70
1
  9
$TREEDEPTH
 70
3020
  9
$CMLSTYLE
  2
Standard
  9
$CMLJUST
 70
0
  9
$CMLSCALE
 40
20.0
  9
$PROXYGRAPHICS
 70
1
  9
$MEASUREMENT
 70
1
  9
$CELWEIGHT
370
-1
  9
$ENDCAPS
280
0
  9
$JOINSTYLE
280
0
  9
$LWDISPLAY
290
0
  9
$INSUNITS
 70
6
  9
$HYPERLINKBASE
  1

  9
$STYLESHEET
  1

  9
$XEDIT
290
1
  9
$CEPSNTYPE
380
0
  9
$PSTYLEMODE
290
1
  9
$FINGERPRINTGUID
  2
{ABAD58D0-3159-4B68-802D-42F35FA9A092}
  9
$VERSIONGUID
  2
{E21C670A-B6E6-46C5-9103-E6F7FBE5037C}
  9
$EXTNAMES
290
1
  9
$PSVPSCALE
 40
0.0
  9
$OLESTARTUP
290
0
  9
$SORTENTS
280
127
  9
$INDEXCTL
280
0
  9
$HIDETEXT
280
1
  9
$XCLIPFRAME
280
1
  9
$HALOGAP
280
0
  9
$OBSCOLOR
 70
257
  9
$OBSLTYPE
280
0
  9
$INTERSECTIONDISPLAY
280
0
  9
$INTERSECTIONCOLOR
 70
257
  9
$DIMASSOC
280
2
  9
$PROJECTNAME
  1

  9
$CAMERADISPLAY
290
0
  9
$LENSLENGTH
 40
50.0
  9
$CAMERAHEIGHT
 40
0.0
  9
$STEPSPERSEC
 40
24.0
  9
$STEPSIZE
 40
100.0
  9
$3DDWFPREC
 40
2.0
  9
$PSOLWIDTH
 40
0.005
  9
$PSOLHEIGHT
 40
0.08
  9
$LOFTANG1
 40
1.570796326795
  9
$LOFTANG2
 40
1.570796326795
  9
$LOFTMAG1
 40
0.0
  9
$LOFTMAG2
 40
0.0
  9
$LOFTPARAM
 70
7
  9
$LOFTNORMALS
280
1
  9
$LATITUDE
 40
37.795
  9
$LONGITUDE
 40
-122.394
  9
$NORTHDIRECTION
 40
0.0
  9
$TIMEZONE
 70
-8000
  9
$LIGHTGLYPHDISPLAY
280
1
  9
$TILEMODELIGHTSYNCH
280
1
  9
$CMATERIAL
347
20
  9
$SOLIDHIST
280
0
  9
$SHOWHIST
280
1
  9
$DWFFRAME
280
2
  9
$DGNFRAME
280
2
  9
$REALWORLDSCALE
290
1
  9
$INTERFERECOLOR
 62
256
  9
$CSHADOW
280
0
  9
$SHADOWPLANELOCATION
 40
0.0
  0
ENDSEC
  0
SECTION
  2
CLASSES
  0
CLASS
  1
ACDBDICTIONARYWDFLT
  2
AcDbDictionaryWithDefault
  3
ObjectDBX Classes
 90
0
 91
0
280
0
281
0
  0
CLASS
  1
SUN
  2
AcDbSun
  3
SCENEOE
 90
1153
 91
0
280
0
281
0
  0
CLASS
  1
VISUALSTYLE
  2
AcDbVisualStyle
  3
ObjectDBX Classes
 90
4095
 91
0
280
0
281
0
  0
CLASS
  1
MATERIAL
  2
AcDbMaterial
  3
ObjectDBX Classes
 90
1153
 91
0
280
0
281
0
  0
CLASS
  1
SCALE
  2
AcDbScale
  3
ObjectDBX Classes
 90
1153
 91
0
280
0
281
0
  0
CLASS
  1
TABLESTYLE
  2
AcDbTableStyle
  3
ObjectDBX Classes
 90
4095
 91
0
280
0
281
0
  0
CLASS
  1
MLEADERSTYLE
  2
AcDbMLeaderStyle
  3
ACDB_MLEADERSTYLE_CLASS
 90
4095
 91
0
280
0
281
0
  0
CLASS
  1
DICTIONARYVAR
  2
AcDbDictionaryVar
  3
ObjectDBX Classes
 90
0
 91
0
280
0
281
0
  0
CLASS
  1
CELLSTYLEMAP
  2
AcDbCellStyleMap
  3
ObjectDBX Classes
 90
1152
 91
0
280
0
281
0
  0
CLASS
  1
MENTALRAYRENDERSETTINGS
  2
AcDbMentalRayRenderSettings
  3
SCENEOE
 90
1024
 91
0
280
0
281
0
  0
CLASS
  1
ACDBDETAILVIEWSTYLE
  2
AcDbDetailViewStyle
  3
ObjectDBX Classes
 90
1025
 91
0
280
0
281
0
  0
CLASS
  1
ACDBSECTIONVIEWSTYLE
  2
AcDbSectionViewStyle
  3
ObjectDBX Classes
 90
1025
 91
0
280
0
281
0
  0
CLASS
  1
RASTERVARIABLES
  2
AcDbRasterVariables
  3
ISM
 90
0
 91
0
280
0
281
0
  0
CLASS
  1
LAYOUT
  2
AcDbLayout
  3
ObjectDBX Classes
 90
0
 91
0
280
0
281
0
  0
CLASS
  1
ACDBPLACEHOLDER
  2
AcDbPlaceHolder
  3
ObjectDBX Classes
 90
0
 91
0
280
0
281
0
  0
ENDSEC
  0
SECTION
  2
TABLES
  0
TABLE
  2
VPORT
  5
8
330
0
100
AcDbSymbolTable
 70
1
  0
VPORT
  5
23
330
8
100
AcDbSymbolTableRecord
100
AcDbViewportTableRecord
  2
*Active
 70
0
 10
0.0
 20
0.0
 11
1.0
 21
1.0
 12
0.0
 22
0.0
 13
0.0
 23
0.0
 14
0.5
 24
0.5
 15
0.5
 25
0.5
 16
0.0
 26
0.0
 36
1.0
 17
0.0
 27
0.0
 37
0.0
 40
1000.0
 41
1.34
 42
50.0
 43
0.0
 44
0.0
 50
0.0
 51
0.0
 71
0
 72
1000
 73
1
 74
3
 75
0
 76
0
 77
0
 78
0
281
0
 65
0
146
0.0
  0
ENDTAB
  0
TABLE
  2
LTYPE
  5
2
330
0
100
AcDbSymbolTable
 70
3
  0
LTYPE
  5
24
330
2
100
AcDbSymbolTableRecord
100
AcDbLinetypeTableRecord
  2
ByBlock
 70
0
  3

 72
65
 73
0
 40
0.0
  0
LTYPE
  5
25
330
2
100
AcDbSymbolTableRecord
100
AcDbLinetypeTableRecord
  2
ByLayer
 70
0
  3

 72
65
 73
0
 40
0.0
  0
LTYPE
  5
26
330
2
100
AcDbSymbolTableRecord
100
AcDbLinetypeTableRecord
  2
Continuous
 70
0
  3

 72
65
 73
0
 40
0.0
  0
ENDTAB
  0
TABLE
  2
LAYER
  5
1
330
0
100
AcDbSymbolTable
 70
2
  0
LAYER
  5
27
330
1
100
AcDbSymbolTableRecord
100
AcDbLayerTableRecord
  2
0
 70
0
 62
7
  6
Continuous
370
-3
390
13
347
21
  0
LAYER
  5
28
330
1
100
AcDbSymbolTableRecord
100
AcDbLayerTableRecord
  2
Defpoints
 70
0
 62
7
  6
Continuous
290
0
370
-3
390
13
347
21
  0
ENDTAB
  0
TABLE
  2
STYLE
  5
5
330
0
100
AcDbSymbolTable
 70
1
  0
STYLE
  5
29
330
5
100
AcDbSymbolTableRecord
100
AcDbTextStyleTableRecord
  2
Standard
 70
0
 40
0.0
 41
1.0
 50
0.0
 71
0
 42
2.5
  3
txt
  4

  0
ENDTAB
  0
TABLE
  2
VIEW
  5
7
330
0
100
AcDbSymbolTable
 70
0
  0
ENDTAB
  0
TABLE
  2
UCS
  5
6
330
0
100
AcDbSymbolTable
 70
0
  0
ENDTAB
  0
TABLE
  2
APPID
  5
3
330
0
100
AcDbSymbolTable
 70
3
  0
APPID
  5
2A
330
3
100
AcDbSymbolTableRecord
100
AcDbRegAppTableRecord
  2
ACAD
 70
0
  0
APPID
  5
3B
330
3
100
AcDbSymbolTableRecord
100
AcDbRegAppTableRecord
  2
HATCHBACKGROUNDCOLOR
 70
0
  0
APPID
  5
3C
330
3
100
AcDbSymbolTableRecord
100
AcDbRegAppTableRecord
  2
EZDXF
 70
0
  0
ENDTAB
  0
TABLE
  2
DIMSTYLE
  5
4
330
0
100
AcDbSymbolTable
 70
1
100
AcDbDimStyleTable
  0
DIMSTYLE
105
2B
330
4
100
AcDbSymbolTableRecord
100
AcDbDimStyleTableRecord
  2
Standard
 70
0
 40
1.0
 41
2.5
 42
0.625
 43
3.75
 44
1.25
 45
0.0
 46
0.0
 47
0.0
 48
0.0
 49
2.5
140
2.5
141
2.5
142
0.0
143
0.03937007874
144
1.0
145
0.0
146
1.0
147
0.625
148
0.0
 69
0
 70
0
 71
0
 72
0
 73
0
 74
0
 75
0
 76
0
 77
1
 78
8
 79
3
170
0
171
3
172
1
173
0
174
0
175
0
176
0
177
0
178
0
179
2
271
2
272
2
273
2
274
3
275
0
276
0
277
2
278
44
279
0
280
0
281
0
282
0
283
0
284
8
285
0
286
0
288
0
289
3
290
0
371
-2
372
-2
  0
ENDTAB
  0
TABLE
  2
BLOCK_RECORD
  5
9
330
0
100
AcDbSymbolTable
 70
2
  0
BLOCK_RECORD
  5
17
330
9
100
AcDbSymbolTableRecord
100
AcDbBlockTableRecord
  2
*Model_Space
340
1A
 70
0
280
1
281
0
  0
BLOCK_RECORD
  5
1B
330
9
100
AcDbSymbolTableRecord
100
AcDbBlockTableRecord
  2
*Paper_Space
340
1E
 70
0
280
1
281
0
  0
ENDTAB
  0
ENDSEC
  0
SECTION
  2
BLOCKS
  0
BLOCK
  5
18
330
17
100
AcDbEntity
  8
0
100
AcDbBlockBegin
  2
*Model_Space
 70
0
 10
0.0
 20
0.0
 30
0.0
  3
*Model_Space
  1

  0
ENDBLK
  5
19
330
17
100
AcDbEntity
  8
0
100
AcDbBlockEnd
  0
BLOCK
  5
1C
330
1B
100
AcDbEntity
  8
0
100
AcDbBlockBegin
  2
*Paper_Space
 70
0
 10
0.0
 20
0.0
 30
0.0
  3
*Paper_Space
  1

  0
ENDBLK
  5
1D
330
1B
100
AcDbEntity
  8
0
100
AcDbBlockEnd
  0
ENDSEC
  0
SECTION
  2
ENTITIES
  0
LWPOLYLINE
  5
2F
330
17
100
AcDbEntity
  8
0
100
AcDbPolyline
 90
186
 70
1
 10
110.02210998535156
 20
40.93067169189453
 10
110.00230699327257
 20
40.53090657552084
 10
109.96411587185331
 20
40.15554107666016
 10
109.90753662109377
 20
39.80457519531251
 10
109.83256924099395
 20
39.478008931477866
 10
109.73921373155383
 20
39.17584228515626
 10
109.62747009277344
 20
38.89807525634766
 10
109.49733832465277
 20
38.64470784505208
 10
109.34881842719184
 20
38.41574005126953
 10
109.18191040039062
 20
38.211171875
 10
108.99661424424914
 20
38.03100331624349
 10
108.79292995876736
 20
37.875234375000005
 10
108.57085754394532
 20
37.74386505126953
 10
108.33039699978299
 20
37.63689534505208
 10
108.07154832628039
 20
37.55432525634766
 10
107.7943115234375
 20
37.49615478515625
 10
107.65911173502606
 20
37.492264980740025
 10
107.53287027994794
 20
37.48059556749132
 10
107.41558715820315
 20
37.46114654541016
 10
107.30726236979169
 20
37.43391791449653
 10
107.20789591471356
 20
37.39890967475044
 10
107.11748779296876
 20
37.35612182617187
 10
107.0360380045573
 20
37.30555436876085
 10
106.96354654947916
 20
37.24720730251736
 10
106.9000134277344
 20
37.18108062744141
 10
106.84543863932292
 20
37.10717434353299
 10
106.79982218424479
 20
37.025488450792096
 10
106.7631640625
 20
36.93602294921875
 10
106.73546427408854
 20
36.83877783881293
 10
106.71672281901043
 20
36.73375311957466
 10
106.70693969726562
 20
36.620948791503906
 10
106.71141886393231
 20
36.509735649956596
 10
106.7248563639323
 20
36.40594852023654
 10
106.74725219726562
 20
36.30958740234376
 10
106.77860636393231
 20
36.22065229627822
 10
106.8189188639323
 20
36.13914320203993
 10
106.86818969726563
 20
36.06506011962891
 10
106.9264188639323
 20
35.99840304904514
 10
106.99360636393229
 20
35.93917199028863
 10
107.06975219726563
 20
35.887366943359375
 10
107.1548563639323
 20
35.842987908257385
 10
107.24891886393229
 20
35.80603488498264
 10
107.35193969726564
 20
35.77650787353516
 10
107.46391886393229
 20
35.75440687391493
 10
107.58485636393229
 20
35.73973188612196
 10
107.71475219726562
 20
35.73248291015625
 10
108.54198360866971
 20
35.77568305121528
 10
109.31216457790799
 20
35.86284979926216
 10
110.02529510498049
 20
35.993983154296885
 10
110.68137518988718
 20
36.16908311631945
 10
111.28040483262804
 20
36.388149685329864
 10
111.82238403320312
 20
36.651182861328124
 10
112.30731279161242
 20
36.958182644314235
 10
112.7351911078559
 20
37.3091490342882
 10
113.1060189819336
 20
37.704082031249996
 10
113.41979641384549
 20
38.142981635199654
 10
113.67652340359159
 20
38.62584784613715
 10
113.87619995117188
 20
39.1526806640625
 10
114.01882605658638
 20
39.7234800889757
 10
114.10440171983507
 20
40.33824612087674
 10
114.13292694091797
 20
40.996978759765625
 10
114.03031819661457
 20
41.63962122599284
 10
113.87454884847007
 20
42.237943522135424
 10
113.6656188964844
 20
42.79194564819337
 10
113.40352834065757
 20
43.30162760416667
 10
113.08827718098959
 20
43.76698939005534
 10
112.71986541748048
 20
44.18803100585938
 10
112.29829305013021
 20
44.56475245157878
 10
111.82356007893881
 20
44.89715372721354
 10
111.29566650390626
 20
45.18523483276367
 10
110.71461232503256
 20
45.42899576822917
 10
110.08039754231771
 20
45.62843653361003
 10
109.39302215576173
 20
45.78355712890625
 10
108.65248616536459
 20
45.89435755411784
 10
107.85878957112631
 20
45.960837809244794
 10
107.01193237304688
 20
45.98299789428711
 10
99.09529876708984
 20
45.98299789428711
 10
99.10107452392579
 20
45.85831800672743
 10
99.11840179443361
 20
45.73888344658746
 10
99.1472805786133
 20
45.624694213867194
 10
99.18771087646486
 20
45.51575030856663
 10
99.23969268798828
 20
45.41205173068577
 10
99.3032260131836
 20
45.31359848022461
 10
99.37831085205077
 20
45.22039055718316
 10
99.46494720458983
 20
45.13242796156142
 10
99.56313507080078
 20
45.04971069335937
 10
99.6728744506836
 20
44.97223875257704
 10
99.79416534423828
 20
44.90001213921441
 10
99.92700775146486
 20
44.83303085327149
 10
100.07140167236328
 20
44.771294894748266
 10
100.22734710693359
 20
44.71480426364475
 10
100.39484405517578
 20
44.66355895996094
 10
100.56234198676215
 20
44.61372812906901
 10
100.71828833685981
 20
44.561480916341154
 10
100.86268310546876
 20
44.50681732177735
 10
100.995526292589
 20
44.44973734537761
 10
101.11681789822049
 20
44.39024098714193
 10
101.22655792236328
 20
44.32832824707032
 10
101.32474636501736
 20
44.263999125162755
 10
101.41138322618272
 20
44.19725362141927
 10
101.48646850585938
 20
44.128091735839845
 10
101.5500022040473
 20
44.056513468424484
 10
101.60198432074652
 20
43.98251881917318
 10
101.64241485595704
 20
43.90610778808594
 10
101.67129380967882
 20
43.82728037516276
 10
101.6886211819119
 20
43.74603658040365
 10
101.69439697265625
 20
43.662376403808594
 10
101.69439697265625
 20
30.534290313720703
 10
101.6886211819119
 20
30.431829579671227
 10
101.67129380967883
 20
30.333081817626955
 10
101.64241485595707
 20
30.238047027587896
 10
101.60198432074655
 20
30.146725209554038
 10
101.5500022040473
 20
30.05911636352539
 10
101.48646850585938
 20
29.97522048950195
 10
101.41138322618272
 20
29.895037587483724
 10
101.32474636501736
 20
29.8185676574707
 10
101.22655792236328
 20
29.74581069946289
 10
101.11681789822049
 20
29.67676671346029
 10
100.99552629258898
 20
29.611435699462888
 10
100.86268310546876
 20
29.549817657470705
 10
100.71828833685981
 20
29.491912587483725
 10
100.56234198676215
 20
29.437720489501952
 10
100.39484405517578
 20
29.38724136352539
 10
100.22734710693359
 20
29.33599605984158
 10
100.0714016723633
 20
29.27950542873807
 10
99.92700775146487
 20
29.217769470214847
 10
99.7941653442383
 20
29.150788184271924
 10
99.6728744506836
 20
29.078561570909294
 10
99.56313507080078
 20
29.001089630126952
 10
99.46494720458983
 20
28.918372361924916
 10
99.37831085205077
 20
28.830409766303166
 10
99.3032260131836
 20
28.737201843261715
 10
99.23969268798828
 20
28.638748592800567
 10
99.18771087646485
 20
28.535050014919705
 10
99.14728057861329
 20
28.42610610961914
 10
99.1184017944336
 20
28.311916876898874
 10
99.10107452392577
 20
28.1924823167589
 10
99.09529876708984
 20
28.06780242919922
 10
107.96670532226562
 20
28.06780242919922
 10
107.96095899793836
 20
28.189034729003907
 10
107.9437200249566
 20
28.30519846598308
 10
107.91498840332034
 20
28.416293640136722
 10
107.87476413302954
 20
28.522320251464848
 10
107.82304721408423
 20
28.623278299967453
 10
107.75983764648436
 20
28.71916778564453
 10
107.68513543023005
 20
28.809988708496093
 10
107.59894056532119
 20
28.89574106852214
 10
107.5012530517578
 20
28.976424865722656
 10
107.39207288953993
 20
29.052040100097656
 10
107.27140007866754
 20
29.122586771647136
 10
107.13923461914062
 20
29.188064880371094
 10
106.99557651095921
 20
29.24847442626953
 10
106.84042575412327
 20
29.303815409342448
 10
106.67378234863281
 20
29.354087829589844
 10
106.50713992648656
 20
29.403830312093103
 10
106.35199008517796
 20
29.457580464680994
 10
106.20833282470706
 20
29.51533828735352
 10
106.07616814507381
 20
29.577103780110683
 10
105.95549604627823
 20
29.642876942952476
 10
105.84631652832032
 20
29.71265777587891
 10
105.74862959120009
 20
29.786446278889976
 10
105.66243523491754
 20
29.864242451985675
 10
105.58773345947266
 20
29.946046295166017
 10
105.52452426486545
 20
30.031857808430992
 10
105.47280765109593
 20
30.121676991780603
 10
105.43258361816407
 20
30.215503845214847
 10
105.40385216606988
 20
30.313338368733724
 10
105.38661329481337
 20
30.41518056233724
 10
105.38086700439453
 20
30.52103042602539
 10
105.38086700439453
 20
44.06019592285156
 10
106.87932586669922
 20
44.06019592285156
 10
107.28439581976997
 20
44.01328264024522
 10
107.66152991400826
 20
43.943266262478296
 10
108.01072814941408
 20
43.850146789550784
 10
108.33199052598742
 20
43.73392422146268
 10
108.6253170437283
 20
43.59459855821398
 10
108.89070770263672
 20
43.43216979980469
 10
109.12816250271268
 20
43.246637946234806
 10
109.33768144395617
 20
43.03800299750434
 10
109.51926452636718
 20
42.80626495361328
 10
109.67291174994574
 20
42.55142381456163
 10
109.79862311469185
 20
42.273479580349395
 10
109.89639862060547
 20
41.97243225097657
 10
109.96623826768663
 20
41.648281826443146
 10
110.00814205593534
 20
41.30102830674913
 10
110.02210998535156
 20
40.93067169189453
  0
LWPOLYLINE
  5
30
330
17
100
AcDbEntity
  8
0
100
AcDbPolyline
 90
126
 70
1
 10
11.243217468261719
 20
28.06780242919922
 10
11.288244895935058
 20
28.069157969156905
 10
11.33138636271159
 20
28.073224589029948
 10
11.37264186859131
 20
28.080002288818367
 10
11.41201141357422
 20
28.08949106852214
 10
11.44949499766032
 20
28.101690928141277
 10
11.48509262084961
 20
28.11660186767578
 10
11.51880428314209
 20
28.13422388712565
 10
11.55062998453776
 20
28.154556986490885
 10
11.580569725036622
 20
28.177601165771485
 10
11.608623504638672
 20
28.203356424967446
 10
11.634791323343913
 20
28.231822764078778
 10
11.659073181152344
 20
28.26300018310547
 10
11.681469078063966
 20
28.296888682047523
 10
11.701979014078777
 20
28.333488260904947
 10
11.720602989196777
 20
28.372798919677734
 10
12.861021995544434
 20
30.759723663330078
 10
12.877465087042916
 20
30.798680318196617
 10
12.891432880825468
 20
30.837754872639977
 10
12.902925376892092
 20
30.876947326660165
 10
12.911942575242787
 20
30.916257680257164
 10
12.918484475877552
 20
30.955685933430996
 10
12.922551078796388
 20
30.99523208618164
 10
12.924142383999294
 20
31.03489613850912
 10
12.923258391486275
 20
31.074678090413414
 10
12.919899101257325
 20
31.11457794189453
 10
12.914064513312447
 20
31.154595692952476
 10
12.905754627651639
 20
31.19473134358724
 10
12.894969444274903
 20
31.234984893798828
 10
12.881708963182238
 20
31.27535634358724
 10
12.865973184373644
 20
31.315845692952475
 10
12.847762107849121
 20
31.35645294189453
 10
6.867189407348633
 20
43.9541130065918
 10
6.863296110365127
 20
43.961910230848524
 10
6.859686592949761
 20
43.969699283176006
 10
6.85636085510254
 20
43.97748016357423
 10
6.85331889682346
 20
43.98525287204319
 10
6.850560718112523
 20
43.9930174085829
 10
6.8480863189697265
 20
44.00077377319336
 10
6.845895699395074
 20
44.008521965874564
 10
6.843988859388563
 20
44.01626198662652
 10
6.842365798950196
 20
44.02399383544922
 10
6.841026518079969
 20
44.03171751234267
 10
6.839971016777886
 20
44.03943301730686
 10
6.8391992950439455
 20
44.0471403503418
 10
6.838711352878147
 20
44.05483951144748
 10
6.83850719028049
 20
44.062530500623915
 10
6.838586807250977
 20
44.070213317871094
 10
6.844227246178521
 20
44.11287492540147
 10
6.858679945203995
 20
44.1552823554145
 10
6.881944904327393
 20
44.197435607910165
 10
6.914022123548721
 20
44.23933468288847
 10
6.954911602867975
 20
44.2809795803494
 10
7.004613342285157
 20
44.32237030029297
 10
7.063127341800266
 20
44.36350684271918
 10
7.130453601413302
 20
44.40438920762804
 10
7.206592121124268
 20
44.44501739501953
 10
7.29154290093316
 20
44.48539140489366
 10
7.385305940839979
 20
44.525511237250434
 10
7.487881240844727
 20
44.565376892089844
 10
7.599268800947401
 20
44.60498836941189
 10
7.719468621148003
 20
44.644345669216584
 10
7.848480701446533
 20
44.683448791503906
 10
8.000654559665255
 20
44.73207158406576
 10
8.142455599043105
 20
44.78599863688151
 10
8.27388381958008
 20
44.84522994995118
 10
8.394939221276179
 20
44.90976552327475
 10
8.505621804131403
 20
44.97960535685221
 10
8.605931568145753
 20
45.054749450683595
 10
8.695868513319226
 20
45.13519780476888
 10
8.775432639651829
 20
45.22095041910808
 10
8.844623947143555
 20
45.31200729370117
 10
8.903442435794407
 20
45.40836842854817
 10
8.951888105604384
 20
45.51003382364909
 10
8.989960956573487
 20
45.61700347900391
 10
9.017660988701714
 20
45.72927739461264
 10
9.03498820198907
 20
45.84685557047526
 10
9.041942596435547
 20
45.9697380065918
 10
0.661185622215271
 20
45.9697380065918
 10
0.6667256450653075
 20
45.84670823838976
 10
0.6833457136154175
 20
45.72868806627063
 10
0.7110458278656007
 20
45.61567749023438
 10
0.7498259878158571
 20
45.50767651028104
 10
0.7996861934661865
 20
45.40468512641059
 10
0.8606264448165895
 20
45.30670333862305
 10
0.9326467418670654
 20
45.213731146918406
 10
1.0157470846176149
 20
45.12576855129666
 10
1.1099274730682374
 20
45.04281555175781
 10
1.215187907218933
 20
44.964872148301865
 10
1.3315283870697021
 20
44.89193834092882
 10
1.4589489126205446
 20
44.82401412963867
 10
1.59744948387146
 20
44.76109951443142
 10
1.7470301008224487
 20
44.70319449530707
 10
1.9076907634735107
 20
44.650299072265625
 10
2.0689996814727785
 20
44.598818122016056
 10
2.2205251598358156
 20
44.545156521267366
 10
2.3622671985626225
 20
44.48931427001954
 10
2.4942257976531987
 20
44.431291368272575
 10
2.616400957107544
 20
44.37108781602648
 10
2.7287926769256594
 20
44.30870361328125
 10
2.831400957107544
 20
44.24413876003689
 10
2.9242257976531985
 20
44.1773932562934
 10
3.007267198562622
 20
44.10846710205078
 10
3.0805251598358154
 20
44.03736029730903
 10
3.143999681472778
 20
43.96407284206815
 10
3.1976907634735108
 20
43.888604736328126
 10
3.2415984058380127
 20
43.81095598008898
 10
3.2757226085662845
 20
43.73112657335069
 10
3.300063371658325
 20
43.64911651611328
 10
10.63322639465332
 20
28.346275329589844
 10
10.6537361102634
 20
28.310383266872833
 10
10.676367552015517
 20
28.27696651882596
 10
10.701120719909671
 20
28.246025085449226
 10
10.727995613945858
 20
28.217558966742626
 10
10.756992234124079
 20
28.191568162706165
 10
10.788110580444336
 20
28.16805267333984
 10
10.821350652906629
 20
28.14701249864366
 10
10.85671245151096
 20
28.128447638617622
 10
10.894195976257325
 20
28.11235809326172
 10
10.933801227145725
 20
28.098743862575954
 10
10.975528204176161
 20
28.08760494656033
 10
11.019376907348633
 20
28.078941345214844
 10
11.06534733666314
 20
28.072753058539497
 10
11.113439492119683
 20
28.06904008653429
 10
11.163653373718262
 20
28.06780242919922
 10
11.243217468261719
 20
28.06780242919922
  0
LWPOLYLINE
  5
31
330
17
100
AcDbEntity
  8
0
100
AcDbPolyline
 90
139
 70
1
 10
16.55302619934082
 20
44.071136474609375
 10
16.55302552117242
 20
44.06512117173937
 10
16.552845976087784
 20
44.05910325792101
 10
16.552487564086917
 20
44.053082733154305
 10
16.551950285169816
 20
44.04705959743925
 10
16.551234139336483
 20
44.04103385077583
 10
16.550339126586916
 20
44.035005493164064
 10
16.549265246921117
 20
44.02897452460395
 10
16.548012500339084
 20
44.022940945095485
 10
16.54658088684082
 20
44.016904754638674
 10
16.544970406426323
 20
44.010865953233505
 10
16.543181059095595
 20
44.004824540879994
 10
16.541212844848634
 20
43.998780517578126
 10
16.53906576368544
 20
43.99273388332791
 10
16.536739815606012
 20
43.98668463812934
 10
16.53423500061035
 20
43.98063278198242
 10
12.68863296508789
 20
35.175533294677734
 10
12.64419108496772
 20
35.07608154296875
 10
12.604979366726345
 20
34.97939865112305
 10
12.570997810363771
 20
34.885484619140634
 10
12.542246415879992
 20
34.794339447021486
 10
12.518725183275011
 20
34.705963134765625
 10
12.500434112548827
 20
34.620355682373045
 10
12.487373203701441
 20
34.53751708984375
 10
12.479542456732856
 20
34.457447357177735
 10
12.476941871643067
 20
34.380146484375004
 10
12.479571448432075
 20
34.30561447143555
 10
12.48743118709988
 20
34.23385131835938
 10
12.500521087646487
 20
34.16485702514649
 10
12.518841150071886
 20
34.098631591796874
 10
12.542391374376084
 20
34.03517501831055
 10
12.571171760559082
 20
33.9744873046875
 10
12.590194986131456
 20
33.94066804673937
 10
12.6109660381741
 20
33.9077741156684
 10
12.633484916687014
 20
33.87580551147462
 10
12.657751621670194
 20
33.84476223415799
 10
12.683766153123646
 20
33.814644283718536
 10
12.711528511047362
 20
33.78545166015625
 10
12.741038695441352
 20
33.75718436347113
 10
12.77229670630561
 20
33.72984239366319
 10
12.805302543640137
 20
33.70342575073242
 10
12.840056207444935
 20
33.67793443467882
 10
12.87655769772
 20
33.65336844550239
 10
12.914807014465334
 20
33.62972778320312
 10
12.954804157680934
 20
33.60701244778103
 10
12.996549127366807
 20
33.58522243923611
 10
13.04004192352295
 20
33.56435775756836
 10
13.084393853081597
 20
33.544831441243495
 10
13.128306778801813
 20
33.52724472045899
 10
13.171780700683597
 20
33.511597595214845
 10
13.214815618726945
 20
33.49789006551107
 10
13.257411532931858
 20
33.48612213134766
 10
13.29956844329834
 20
33.47629379272461
 10
13.341286349826389
 20
33.46840504964193
 10
13.382565252516004
 20
33.46245590209961
 10
13.423405151367188
 20
33.45844635009766
 10
13.463806046379936
 20
33.45637639363607
 10
13.503767937554255
 20
33.456246032714844
 10
13.543290824890137
 20
33.45805526733399
 10
13.582374708387588
 20
33.46180409749349
 10
13.621019588046604
 20
33.467492523193364
 10
13.659225463867188
 20
33.475120544433594
 10
13.723812370300294
 20
33.49274553087023
 10
13.787104593912764
 20
33.51609066433377
 10
13.84910213470459
 20
33.545155944824224
 10
13.909804992675783
 20
33.57994137234159
 10
13.969213167826336
 20
33.620446946885856
 10
14.02732666015625
 20
33.66667266845703
 10
14.084145469665527
 20
33.71861853705512
 10
14.139669596354167
 20
33.776284552680124
 10
14.193899040222167
 20
33.83967071533203
 10
14.246833801269531
 20
33.90877702501085
 10
14.298473879496257
 20
33.983603481716585
 10
14.348819274902343
 20
34.06415008544922
 10
14.397869987487795
 20
34.15041683620877
 10
14.445626017252605
 20
34.242403733995225
 10
14.492087364196777
 20
34.340110778808594
 10
18.987462997436523
 20
44.08671951293945
 10
19.008827387491863
 20
44.13604885525174
 10
19.037558822631837
 20
44.18502463446723
 10
19.07365730285645
 20
44.23364685058594
 10
19.117122828165694
 20
44.28191550360786
 10
19.167955398559574
 20
44.329830593532996
 10
19.226155014038085
 20
44.377392120361336
 10
19.291721674601238
 20
44.42460008409287
 10
19.364655380249026
 20
44.471454484727644
 10
19.444956130981446
 20
44.51795532226562
 10
19.5326239267985
 20
44.56410259670682
 10
19.627658767700197
 20
44.60989630805122
 10
19.730060653686525
 20
44.655336456298826
 10
19.83982958475749
 20
44.70042304144965
 10
19.956965560913087
 20
44.745156063503686
 10
20.08146858215332
 20
44.78953552246094
 10
20.20538248697917
 20
44.83603622436524
 10
20.3207506052653
 20
44.88713399251302
 10
20.427572937011725
 20
44.942828826904304
 10
20.525849482218426
 20
45.00312072753907
 10
20.615580240885418
 20
45.06800969441732
 10
20.696765213012693
 20
45.13749572753907
 10
20.769404398600262
 20
45.2115788269043
 10
20.833497797648114
 20
45.29025899251302
 10
20.88904541015625
 20
45.37353622436524
 10
20.936047236124676
 20
45.46141052246094
 10
20.97450327555339
 20
45.55388188680013
 10
21.004413528442385
 20
45.65095031738281
 10
21.025777994791667
 20
45.75261581420899
 10
21.038596674601237
 20
45.85887837727865
 10
21.042869567871094
 20
45.9697380065918
 10
14.319698333740234
 20
45.9697380065918
 10
14.32497302585178
 20
45.85024420844184
 10
14.340797356499566
 20
45.73576000637478
 10
14.367171325683598
 20
45.626285400390636
 10
14.404094933403865
 20
45.521820390489374
 10
14.451568179660375
 20
45.42236497667102
 10
14.509591064453126
 20
45.32791915893554
 10
14.578163587782118
 20
45.23848293728298
 10
14.657285749647354
 20
45.154056311713326
 10
14.746957550048828
 20
45.07463928222656
 10
14.847178988986546
 20
45.0002318488227
 10
14.957950066460505
 20
44.930834011501744
 10
15.079270782470704
 20
44.866445770263674
 10
15.211141137017144
 20
44.8070671251085
 10
15.353561130099827
 20
44.75269807603624
 10
15.50653076171875
 20
44.703338623046875
 10
15.640816862318252
 20
44.66214552137586
 10
15.76588585747613
 20
44.62081617567274
 10
15.881737747192387
 20
44.579350585937505
 10
15.988372531467016
 20
44.537748752170145
 10
16.085790210300022
 20
44.496010674370666
 10
16.173990783691405
 20
44.45413635253907
 10
16.252974251641167
 20
44.41212578667535
 10
16.322740614149303
 20
44.36997897677951
 10
16.383289871215823
 20
44.32769592285156
 10
16.434622022840713
 20
44.285276624891495
 10
16.476737069023983
 20
44.24272108289931
 10
16.509635009765624
 20
44.200029296875
 10
16.533315845065648
 20
44.157201266818575
 10
16.547779574924046
 20
44.114236992730035
 10
16.55302619934082
 20
44.071136474609375
  0
LWPOLYLINE
  5
32
330
17
100
AcDbEntity
  8
0
100
AcDbPolyline
 90
172
 70
1
 10
96.61555480957031
 20
41.11632537841797
 10
96.58720564100479
 20
41.708812628852
 10
96.50923210991753
 20
42.26275549994575
 10
96.38163421630863
 20
42.77815399169923
 10
96.20441196017795
 20
43.25500810411242
 10
95.97756534152562
 20
43.69331783718534
 10
95.70109436035156
 20
44.093083190917966
 10
95.37499901665582
 20
44.45430416531033
 10
94.99927931043837
 20
44.77698076036241
 10
94.57393524169922
 20
45.06111297607422
 10
94.09896681043837
 20
45.30670081244575
 10
93.57437401665581
 20
45.513744269477
 10
93.00015686035157
 20
45.68224334716797
 10
92.37631534152561
 20
45.81219804551867
 10
91.70284946017796
 20
45.903608364529084
 10
90.9797592163086
 20
45.95647430419922
 10
90.2753507147895
 20
45.916220906575525
 10
89.61903438991972
 20
45.83435841878256
 10
89.01081024169925
 20
45.71088684082032
 10
88.45067827012805
 20
45.545806172688806
 10
87.93863847520616
 20
45.33911641438802
 10
87.47469085693359
 20
45.090817565917966
 10
87.05883541531034
 20
44.80090962727865
 10
86.69107215033637
 20
44.46939259847005
 10
86.37140106201171
 20
44.096266479492186
 10
86.09982215033637
 20
43.68153127034505
 10
85.87633541531034
 20
43.22518697102865
 10
85.7009408569336
 20
42.72723358154297
 10
85.57363847520617
 20
42.18767110188802
 10
85.49442827012804
 20
41.6064995320638
 10
85.46331024169922
 20
40.98371887207031
 10
85.46649281819661
 20
40.932149183485244
 10
85.47604054768881
 20
40.88352634006076
 10
85.49195343017578
 20
40.83785034179689
 10
85.51423146565756
 20
40.795121188693585
 10
85.54287465413414
 20
40.75533888075087
 10
85.57788299560548
 20
40.718503417968755
 10
85.6192564900716
 20
40.68461480034722
 10
85.66699513753255
 20
40.653673027886285
 10
85.72109893798827
 20
40.62567810058594
 10
85.78156789143881
 20
40.60063001844618
 10
85.84840199788411
 20
40.578528781467014
 10
85.92160125732423
 20
40.55937438964844
 10
86.0011656697591
 20
40.54316684299045
 10
86.08709523518881
 20
40.52990614149306
 10
86.17938995361328
 20
40.51959228515625
 10
86.40481567382812
 20
40.58589553833008
 10
86.59706702338325
 20
40.931145222981776
 10
86.79898383246528
 20
41.252584584554036
 10
87.01056610107423
 20
41.55021362304688
 10
87.23181382921008
 20
41.82403233846029
 10
87.46272701687283
 20
42.07404073079428
 10
87.7033056640625
 20
42.30023880004883
 10
87.95354977077908
 20
42.50262654622396
 10
88.21345933702257
 20
42.68120396931966
 10
88.48303436279298
 20
42.83597106933594
 10
88.76227484809027
 20
42.96692784627279
 10
89.0511807929145
 20
43.074074300130206
 10
89.34975219726563
 20
43.15741043090821
 10
89.65798906114367
 20
43.21693623860677
 10
89.97589138454862
 20
43.25265172322591
 10
90.30345916748047
 20
43.264556884765625
 10
90.7034019639757
 20
43.20479493882921
 10
91.07576249864367
 20
43.12805935329861
 10
91.4205407714844
 20
43.03435012817384
 10
91.73773678249785
 20
42.92366726345487
 10
92.02735053168404
 20
42.79601075914171
 10
92.28938201904296
 20
42.65138061523437
 10
92.52383124457465
 20
42.489776831732854
 10
92.73069820827908
 20
42.31119940863715
 10
92.90998291015624
 20
42.115648345947264
 10
93.06168535020618
 20
41.90312364366319
 10
93.18580552842883
 20
41.67362530178494
 10
93.28234344482422
 20
41.4271533203125
 10
93.35129909939235
 20
41.163707699245876
 10
93.39267249213324
 20
40.88328843858507
 10
93.40646362304688
 20
40.58589553833008
 10
93.38907738579644
 20
40.11074996948243
 10
93.33691867404514
 20
39.633011220296225
 10
93.24998748779299
 20
39.152679290771495
 10
93.12828382703994
 20
38.66975418090821
 10
92.97180769178604
 20
38.18423589070638
 10
92.78055908203126
 20
37.696124420166015
 10
92.55453799777561
 20
37.20541976928711
 10
92.2937444390191
 20
36.712121938069664
 10
91.99817840576172
 20
36.21623092651367
 10
91.66783989800348
 20
35.71774673461914
 10
91.30272891574435
 20
35.21666936238607
 10
90.90284545898439
 20
34.71299880981445
 10
90.46818952772352
 20
34.206735076904295
 10
89.9987611219618
 20
33.6978781636556
 10
89.49456024169922
 20
33.18642807006836
 10
85.48983001708984
 20
29.606040954589844
 10
85.3992453342014
 20
29.524944695366756
 10
85.31490787082248
 20
29.440783725314677
 10
85.23681762695314
 20
29.3535580444336
 10
85.16497460259333
 20
29.263267652723528
 10
85.09937879774307
 20
29.169912550184463
 10
85.04003021240234
 20
29.073492736816405
 10
84.98692884657119
 20
28.97400821261936
 10
84.94007470024957
 20
28.871458977593317
 10
84.89946777343751
 20
28.76584503173828
 10
84.86510806613498
 20
28.657166375054256
 10
84.83699557834201
 20
28.54542300754123
 10
84.8151303100586
 20
28.43061492919922
 10
84.79951226128472
 20
28.312742140028213
 10
84.7901414320204
 20
28.191804640028213
 10
84.78701782226562
 20
28.06780242919922
 10
95.68730163574219
 20
28.06780242919922
 10
95.78124657524957
 20
28.070749257405602
 10
95.87212680392796
 20
28.07958974202474
 10
95.95994232177738
 20
28.094323883056646
 10
96.04469312879776
 20
28.114951680501306
 10
96.12637922498915
 20
28.141473134358723
 10
96.20500061035156
 20
28.173888244628905
 10
96.28055728488498
 20
28.212197011311847
 10
96.35304924858941
 20
28.25639943440755
 10
96.42247650146484
 20
28.306495513916015
 10
96.48883904351129
 20
28.36248524983724
 10
96.55213687472875
 20
28.424368642171224
 10
96.61236999511719
 20
28.49214569091797
 10
96.66953840467664
 20
28.565816396077473
 10
96.72364210340713
 20
28.64538075764974
 10
96.7746810913086
 20
28.730838775634766
 10
97.80901336669922
 20
32.125572204589844
 10
97.68884229871962
 20
32.154745737711586
 10
97.57232526991103
 20
32.175078837076825
 10
97.45946228027346
 20
32.18657150268555
 10
97.35025332980686
 20
32.18922373453776
 10
97.24469841851129
 20
32.18303553263347
 10
97.14279754638673
 20
32.168006896972656
 10
97.04455071343315
 20
32.14413782755534
 10
96.94995791965061
 20
32.111428324381514
 10
96.85901916503906
 20
32.06987838745117
 10
96.77173444959853
 20
32.01948801676433
 10
96.68810377332899
 20
31.96025721232097
 10
96.60812713623048
 20
31.892185974121098
 10
96.53180453830295
 20
31.815274302164713
 10
96.45913597954643
 20
31.72952219645182
 10
96.39012145996094
 20
31.634929656982422
 10
96.32004608154297
 20
31.539216834174262
 10
96.24419494628906
 20
31.450104895697702
 10
96.16256805419924
 20
31.36759384155274
 10
96.07516540527345
 20
31.29168367173937
 10
95.98198699951173
 20
31.222374386257595
 10
95.88303283691407
 20
31.159665985107424
 10
95.77830291748047
 20
31.103558468288842
 10
95.66779724121093
 20
31.054051835801864
 10
95.55151580810548
 20
31.011146087646484
 10
95.42945861816406
 20
30.9748412238227
 10
95.30162567138672
 20
30.94513724433051
 10
95.16801696777344
 20
30.922034149169924
 10
95.02863250732423
 20
30.90553193834093
 10
94.88347229003907
 20
30.895630611843533
 10
94.73253631591797
 20
30.892330169677734
 10
89.49456024169922
 20
30.892330169677734
 10
89.49456024169922
 20
31.17080307006836
 10
90.41237636990019
 20
31.99720943874783
 10
91.26689490424262
 20
32.80027701483832
 10
92.05811584472657
 20
33.58000579833985
 10
92.786039191352
 20
34.33639578925239
 10
93.45066494411893
 20
35.06944698757596
 10
94.05199310302736
 20
35.77915939331055
 10
94.59002366807727
 20
36.46553300645616
 10
95.06475663926867
 20
37.1285678270128
 10
95.47619201660156
 20
37.76826385498047
 10
95.82432980007596
 20
38.38462109035916
 10
96.10916998969185
 20
38.977639533148874
 10
96.33071258544922
 20
39.547319183349614
 10
96.48895758734808
 20
40.093660040961375
 10
96.58390499538847
 20
40.61666210598416
 10
96.61555480957031
 20
41.11632537841797
  0
LWPOLYLINE
  5
33
330
17
100
AcDbEntity
  8
0
100
AcDbPolyline
 90
247
 70
1
 10
53.96916961669922
 20
44.099979400634766
 10
53.965574493408205
 20
44.193982679579
 10
53.954789123535164
 20
44.28150297376845
 10
53.93681350708009
 20
44.36254028320313
 10
53.91164764404297
 20
44.43709460788303
 10
53.87929153442383
 20
44.505165947808166
 10
53.839745178222664
 20
44.56675430297851
 10
53.79300857543946
 20
44.6218596733941
 10
53.73908172607422
 20
44.670482059054905
 10
53.67796463012695
 20
44.712621459960936
 10
53.609657287597656
 20
44.7482778761122
 10
53.53415969848633
 20
44.777451307508684
 10
53.45147186279297
 20
44.800141754150395
 10
53.36159378051758
 20
44.816349216037324
 10
53.264525451660155
 20
44.82607369316949
 10
53.1602668762207
 20
44.829315185546875
 10
53.130857408311634
 20
44.82271460639107
 10
53.10274456448026
 20
44.813520779079866
 10
53.07592834472658
 20
44.80173370361329
 10
53.050408749050575
 20
44.78735337999132
 10
53.02618577745226
 20
44.77037980821398
 10
53.00325942993164
 20
44.750812988281254
 10
52.98162970648872
 20
44.72865292019314
 10
52.96129660712348
 20
44.70389960394965
 10
52.94226013183594
 20
44.67655303955078
 10
52.92452028062608
 20
44.64661322699653
 10
52.908077053493926
 20
44.61408016628689
 10
52.89293045043945
 20
44.57895385742188
 10
52.87908047146268
 20
44.541234300401484
 10
52.86652711656359
 20
44.50092149522569
 10
52.85527038574219
 20
44.45801544189453
 10
52.740639309353305
 20
44.17789077758788
 10
52.62306138780382
 20
43.91037851969402
 10
52.50253662109375
 20
43.6554786682129
 10
52.3790650092231
 20
43.41319122314453
 10
52.25264655219185
 20
43.18351618448894
 10
52.123281250000005
 20
42.966453552246094
 10
51.99096910264757
 20
42.762003326416014
 10
51.85571011013455
 20
42.5701655069987
 10
51.717504272460936
 20
42.39094009399414
 10
51.57635158962674
 20
42.224327087402344
 10
51.43225206163194
 20
42.07032648722331
 10
51.285205688476566
 20
41.92893829345704
 10
51.13521247016059
 20
41.80016250610352
 10
50.982272406684025
 20
41.683999125162764
 10
50.826385498046875
 20
41.580448150634766
 10
50.55958031548394
 20
41.46752622816298
 10
50.31080966525608
 20
41.3550757683648
 10
50.08007354736329
 20
41.24309677124024
 10
49.86737196180557
 20
41.13158923678928
 10
49.6727049085829
 20
41.02055316501193
 10
49.496072387695314
 20
40.90998855590821
 10
49.33747439914279
 20
40.79989540947808
 10
49.19691094292534
 20
40.69027372572157
 10
49.07438201904297
 20
40.581123504638676
 10
48.96988762749566
 20
40.472444746229385
 10
48.883427768283426
 20
40.364237450493704
 10
48.81500244140625
 20
40.256501617431645
 10
48.76461164686415
 20
40.14923724704319
 10
48.732255384657115
 20
40.04244433932835
 10
48.717933654785156
 20
39.93612289428711
 10
48.72282538519965
 20
39.83015526665582
 10
48.73750057644314
 20
39.73149575127496
 10
48.761959228515636
 20
39.64014434814454
 10
48.7962013414171
 20
39.55610105726454
 10
48.84022691514758
 20
39.47936587863499
 10
48.89403594970703
 20
39.40993881225586
 10
48.95762844509548
 20
39.34781985812717
 10
49.03100440131293
 20
39.29300901624892
 10
49.11416381835937
 20
39.245506286621094
 10
49.20710669623481
 20
39.205311669243706
 10
49.30983303493924
 20
39.17242516411675
 10
49.42234283447266
 20
39.146846771240234
 10
49.54463609483507
 20
39.12857649061415
 10
49.67671281602648
 20
39.117614322238495
 10
49.818572998046875
 20
39.11396026611328
 10
50.242916107177734
 20
39.11396026611328
 10
50.29760872734918
 20
39.112074296739365
 10
50.348529442681205
 20
39.106416388617625
 10
50.39567825317384
 20
39.09698654174806
 10
50.43905515882705
 20
39.08378475613065
 10
50.478660159640846
 20
39.06681103176542
 10
50.514493255615236
 20
39.04606536865234
 10
50.546554446750214
 20
39.02154776679145
 10
50.57484373304579
 20
38.993258226182725
 10
50.59936111450196
 20
38.961196746826175
 10
50.62010659111871
 20
38.92536332872179
 10
50.637080162896055
 20
38.88575797186958
 10
50.650281829833986
 20
38.842380676269535
 10
50.659711591932506
 20
38.79523144192166
 10
50.66536944919162
 20
38.744310268825956
 10
50.66725540161133
 20
38.68961715698242
 10
50.66725540161133
 20
31.70123291015625
 10
50.68240244547526
 20
31.252726949055994
 10
50.72430658976237
 20
30.833689168294274
 10
50.79296783447266
 20
30.444119567871102
 10
50.88838617960613
 20
30.084018147786466
 10
51.010561625162765
 20
29.753384908040367
 10
51.15949417114258
 20
29.45221984863281
 10
51.33518381754557
 20
29.180522969563803
 10
51.537630564371746
 20
28.938294270833335
 10
51.76683441162109
 20
28.725533752441407
 10
52.022795359293625
 20
28.542241414388023
 10
52.30551340738933
 20
28.388417256673176
 10
52.61498855590821
 20
28.264061279296875
 10
52.951220804850266
 20
28.16917348225912
 10
53.314210154215495
 20
28.103753865559895
 10
53.703956604003906
 20
28.06780242919922
 10
54.150046268039276
 20
28.1177806769477
 10
54.56537112765842
 20
28.18991899278429
 10
54.94993118286134
 20
28.28421737670899
 10
55.30372643364801
 20
28.400675828721795
 10
55.626756880018455
 20
28.5392943488227
 10
55.91902252197266
 20
28.70007293701172
 10
56.18052335951063
 20
28.883011593288845
 10
56.411259392632374
 20
29.088110317654078
 10
56.611230621337896
 20
29.31536911010742
 10
56.78043704562717
 20
29.564787970648872
 10
56.918878665500216
 20
29.83636689927843
 10
57.02655548095703
 20
30.130105895996095
 10
57.10346749199761
 20
30.44600496080187
 10
57.14961469862197
 20
30.784064093695747
 10
57.16499710083008
 20
31.144283294677734
 10
57.14436903211806
 20
31.18907474093967
 10
57.12138354831272
 20
31.231508772108292
 10
57.09604064941407
 20
31.2715853881836
 10
57.06834033542211
 20
31.309304589165585
 10
57.03828260633681
 20
31.344666375054256
 10
57.00586746215821
 20
31.377670745849606
 10
56.971094902886286
 20
31.40831770155165
 10
56.93396492852105
 20
31.43660724216037
 10
56.8944775390625
 20
31.46253936767578
 10
56.852632734510635
 20
31.486114078097877
 10
56.80843051486545
 20
31.507331373426652
 10
56.761870880126956
 20
31.526191253662113
 10
56.71295383029514
 20
31.542693718804255
 10
56.661679365370006
 20
31.556838768853083
 10
56.60804748535156
 20
31.568626403808594
 10
56.521057027180994
 20
31.564265102810335
 10
56.43335937500001
 20
31.55118119981554
 10
56.3449545288086
 20
31.529374694824224
 10
56.255842488606774
 20
31.498845587836378
 10
56.16602325439454
 20
31.459593878852
 10
56.07549682617187
 20
31.411619567871092
 10
55.984263203938795
 20
31.354922654893663
 10
55.892322387695316
 20
31.289503139919702
 10
55.79967437744141
 20
31.21536102294922
 10
55.706319173177086
 20
31.132496303982208
 10
55.61225677490235
 20
31.040908983018667
 10
55.51748718261719
 20
30.940599060058595
 10
55.42201039632161
 20
30.831566535102
 10
55.32582641601562
 20
30.71381140814887
 10
55.22893524169922
 20
30.58733367919922
 10
55.12025711059571
 20
30.553935784233943
 10
55.01647816975912
 20
30.52543704562717
 10
54.91759841918947
 20
30.501837463378912
 10
54.82361785888673
 20
30.483137037489154
 10
54.73453648885092
 20
30.4693357679579
 10
54.65035430908204
 20
30.46043365478516
 10
54.57107131958008
 20
30.45643069797092
 10
54.496687520345056
 20
30.457326897515188
 10
54.42720291137695
 20
30.46312225341797
 10
54.36261749267578
 20
30.473816765679253
 10
54.302931264241536
 20
30.489410434299046
 10
54.248144226074224
 20
30.509903259277348
 10
54.19825637817383
 20
30.535295240614147
 10
54.15326772054037
 20
30.56558637830946
 10
54.11317825317383
 20
30.60077667236328
 10
54.095687154134126
 20
30.619395497639974
 10
54.07932327270509
 20
30.639141540527348
 10
54.06408660888673
 20
30.660014801025397
 10
54.04997716267905
 20
30.68201527913412
 10
54.03699493408204
 20
30.70514297485352
 10
54.02513992309571
 20
30.72939788818359
 10
54.01441212972006
 20
30.75478001912435
 10
54.00481155395508
 20
30.78128936767578
 10
53.99633819580078
 20
30.80892593383789
 10
53.988992055257164
 20
30.837689717610676
 10
53.98277313232422
 20
30.86758071899414
 10
53.977681427001954
 20
30.898598937988282
 10
53.97371693929036
 20
30.9307443745931
 10
53.97087966918946
 20
30.964017028808595
 10
53.96916961669922
 20
30.998416900634766
 10
53.96916961669922
 20
38.68961715698242
 10
53.97117345174154
 20
38.744310268825956
 10
53.97718495686849
 20
38.795231441921665
 10
53.98720413208009
 20
38.842380676269535
 10
54.00123097737631
 20
38.88575797186958
 10
54.019265492757164
 20
38.925363328721794
 10
54.041307678222665
 20
38.961196746826175
 10
54.06735753377279
 20
38.99325822618273
 10
54.09741505940755
 20
39.02154776679145
 10
54.13148025512695
 20
39.04606536865234
 10
54.169553120930985
 20
39.06681103176541
 10
54.21163365681966
 20
39.08378475613064
 10
54.25772186279298
 20
39.09698654174805
 10
54.307817738850915
 20
39.106416388617625
 10
54.361921284993485
 20
39.112074296739365
 10
54.4200325012207
 20
39.11396026611328
 10
55.65327835083008
 20
39.11396026611328
 10
55.812229546440975
 20
39.11826261732313
 10
55.960218590630426
 20
39.131169670952694
 10
56.09724548339845
 20
39.15268142700196
 10
56.22331022474501
 20
39.182797885470926
 10
56.33841281467014
 20
39.2215190463596
 10
56.44255325317383
 20
39.26884490966797
 10
56.53573154025608
 20
39.32477547539605
 10
56.61794767591689
 20
39.38931074354384
 10
56.68920166015625
 20
39.46245071411133
 10
56.749493492974175
 20
39.544195387098526
 10
56.79882317437066
 20
39.63454476250543
 10
56.83719070434571
 20
39.73349884033203
 10
56.864596082899304
 20
39.84105762057834
 10
56.88103931003147
 20
39.95722110324436
 10
56.88652038574219
 20
40.08198928833008
 10
56.88221803453234
 20
40.19137502034505
 10
56.86931098090278
 20
40.29321690877279
 10
56.84779922485353
 20
40.387514953613284
 10
56.81768276638456
 20
40.47426915486654
 10
56.77896160549588
 20
40.553479512532554
 10
56.73163574218749
 20
40.62514602661133
 10
56.675705176459424
 20
40.68926869710286
 10
56.61116990831164
 20
40.74584752400716
 10
56.53802993774414
 20
40.79488250732422
 10
56.45628526475694
 20
40.83637364705404
 10
56.36593588935004
 20
40.87032094319662
 10
56.266981811523436
 20
40.89672439575195
 10
56.15942303127713
 20
40.91558400472005
 10
56.04325954861112
 20
40.92689977010091
 10
55.91849136352539
 20
40.93067169189453
 10
54.3802490234375
 20
40.93067169189453
 10
54.327265455457905
 20
40.93267554389106
 10
54.27793592664931
 20
40.938687099880646
 10
54.232260437011725
 20
40.94870635986329
 10
54.19023898654515
 20
40.96273332383898
 10
54.15187157524957
 20
40.98076799180773
 10
54.11715820312501
 20
41.00281036376953
 10
54.08609887017144
 20
41.0288604397244
 10
54.05869357638889
 20
41.05891821967231
 10
54.03494232177734
 20
41.09298370361328
 10
54.01484510633681
 20
41.13105689154731
 10
53.998401930067274
 20
41.173137783474395
 10
53.98561279296875
 20
41.219226379394534
 10
53.97647769504123
 20
41.26932267930773
 10
53.970996636284724
 20
41.323426683213974
 10
53.96916961669922
 20
41.38153839111328
 10
53.96916961669922
 20
44.099979400634766
  0
LWPOLYLINE
  5
34
330
17
100
AcDbEntity
  8
0
100
AcDbPolyline
 90
169
 70
1
 10
47.5775146484375
 20
38.49070739746094
 10
47.532310774061415
 20
38.84096635606554
 10
47.442668796115456
 20
39.16682562934028
 10
47.30858871459962
 20
39.46828521728517
 10
47.130070529513894
 20
39.74534511990018
 10
46.90711424085829
 20
39.99800533718533
 10
46.63971984863281
 20
40.226265869140626
 10
46.32788735283746
 20
40.43012671576606
 10
45.971616753472226
 20
40.609587877061635
 10
45.57090805053711
 20
40.764649353027345
 10
45.12576124403212
 20
40.89531114366319
 10
44.63617633395725
 20
41.00157324896919
 10
44.102153320312496
 20
41.08343566894531
 10
43.52369220309787
 20
41.140898403591585
 10
42.90079298231337
 20
41.17396145290799
 10
42.233455657958984
 20
41.18262481689453
 10
41.44983744303386
 20
41.095340186225044
 10
40.71855473836263
 20
40.95725236680772
 10
40.03960754394532
 20
40.768361358642586
 10
39.41299585978191
 20
40.52866716172961
 10
38.8387196858724
 20
40.2381697760688
 10
38.31677902221679
 20
39.89686920166015
 10
37.847173868815105
 20
39.50476543850369
 10
37.429904225667315
 20
39.06185848659939
 10
37.064970092773436
 20
38.568148345947264
 10
36.75237147013347
 20
38.02363501654731
 10
36.4921083577474
 20
37.42831849839952
 10
36.28418075561524
 20
36.78219879150391
 10
36.12858866373698
 20
36.08527589586046
 10
36.02533208211263
 20
35.33754981146919
 10
35.97441101074219
 20
34.53902053833008
 10
36.01242475721571
 20
33.662223663330074
 10
36.1017131890191
 20
32.84589553833008
 10
36.242276306152355
 20
32.09003616333008
 10
36.434114108615454
 20
31.394645538330085
 10
36.677226596408424
 20
30.75972366333008
 10
36.97161376953125
 20
30.18527053833008
 10
37.317275627983946
 20
29.671286163330077
 10
37.71421217176649
 20
29.21777053833008
 10
38.16242340087891
 20
28.824723663330076
 10
38.66190931532118
 20
28.492145538330078
 10
39.212669915093315
 20
28.22003616333008
 10
39.81470520019531
 20
28.008395538330078
 10
40.46801517062717
 20
27.857223663330082
 10
41.17259982638889
 20
27.76652053833008
 10
41.92845916748047
 20
27.736286163330078
 10
42.04780578613281
 20
27.736286163330078
 10
42.609941491021054
 20
27.75891774495443
 10
43.147088148329
 20
27.82681248982748
 10
43.65924575805665
 20
27.93997039794922
 10
44.146414320204
 20
28.09839146931967
 10
44.60859383477105
 20
28.302075703938804
 10
45.04578430175781
 20
28.551023101806642
 10
45.45798572116428
 20
28.845233662923178
 10
45.84519809299046
 20
29.184707387288412
 10
46.20742141723633
 20
29.569444274902345
 10
46.54465569390191
 20
29.999444325764976
 10
46.856900922987194
 20
30.474707539876302
 10
47.144157104492194
 20
30.995233917236334
 10
47.40642423841689
 20
31.561023457845053
 10
47.64370232476129
 20
32.17207616170248
 10
47.85599136352539
 20
32.828392028808594
 10
47.85221895005969
 20
32.92068625556098
 10
47.840902726915154
 20
33.006615363227006
 10
47.822042694091806
 20
33.08617935180665
 10
47.79563885158963
 20
33.15937822129992
 10
47.761691199408645
 20
33.22621197170682
 10
47.72019973754883
 20
33.28668060302734
 10
47.6711644660102
 20
33.3407841152615
 10
47.614585384792754
 20
33.38852250840929
 10
47.55046249389649
 20
33.4298957824707
 10
47.478795793321396
 20
33.46490393744575
 10
47.399585283067495
 20
33.49354697333442
 10
47.31283096313477
 20
33.51582489013672
 10
47.21853283352322
 20
33.53173768785265
 10
47.11669089423285
 20
33.54128536648221
 10
47.00730514526367
 20
33.54446792602539
 10
46.88795852661133
 20
33.54446792602539
 10
46.69682754516602
 20
33.17870863172743
 10
46.50180679321289
 20
32.83817411634657
 10
46.302896270751965
 20
32.52286437988282
 10
46.10009597778321
 20
32.23277942233616
 10
45.89340591430664
 20
31.9679192437066
 10
45.682826080322265
 20
31.72828384399414
 10
45.46835647583008
 20
31.513873223198786
 10
45.24999710083008
 20
31.32468738132053
 10
45.02774795532227
 20
31.160726318359377
 10
44.80160903930664
 20
31.021990034315323
 10
44.5715803527832
 20
30.908478529188372
 10
44.33766189575196
 20
30.820191802978517
 10
44.099853668212894
 20
30.75712985568576
 10
43.85815567016602
 20
30.719292687310116
 10
43.61256790161133
 20
30.706680297851562
 10
42.485408782958984
 20
30.706680297851562
 10
42.084877115885426
 20
30.727425910102
 10
41.71074895222982
 20
30.789662746853303
 10
41.3630242919922
 20
30.893390808105472
 10
41.04170313517253
 20
31.038610093858512
 10
40.746785481770836
 20
31.225320604112415
 10
40.478271331787106
 20
31.45352233886719
 10
40.23616068522136
 20
31.72321529812283
 10
40.02045354207357
 20
32.03439948187934
 10
39.83114990234375
 20
32.38707489013672
 10
39.668249766031906
 20
32.781241522894966
 10
39.531753133138025
 20
33.21689938015408
 10
39.42166000366211
 20
33.694048461914065
 10
39.337970377604165
 20
34.212688768174914
 10
39.28068425496419
 20
34.77282029893663
 10
39.24980163574219
 20
35.37444305419922
 10
39.28351328531901
 20
35.812871110704215
 10
39.3351416015625
 20
36.22642798529731
 10
39.404686584472664
 20
36.61511367797853
 10
39.49214823404949
 20
36.97892818874784
 10
39.59752655029297
 20
37.317871517605255
 10
39.72082153320313
 20
37.631943664550775
 10
39.86203318277995
 20
37.92114462958442
 10
40.021161499023435
 20
38.185474412706164
 10
40.198206481933596
 20
38.42493301391602
 10
40.393168131510414
 20
38.639520433213974
 10
40.60604644775391
 20
38.82923667060005
 10
40.836841430664066
 20
38.99408172607422
 10
41.085553080240885
 20
39.1340555996365
 10
41.352181396484376
 20
39.24915829128689
 10
41.63672637939453
 20
39.33938980102539
 10
41.81159055921766
 20
39.359664052327474
 10
41.97902876112197
 20
39.374516143798836
 10
42.13904098510743
 20
39.38394607543946
 10
42.29162723117405
 20
39.387953847249356
 10
42.43678749932183
 20
39.386539459228516
 10
42.57452178955078
 20
39.37970291137695
 10
42.70483010186089
 20
39.36744420369466
 10
42.82771243625217
 20
39.34976333618164
 10
42.943168792724606
 20
39.32666030883789
 10
43.05119917127821
 20
39.29813512166341
 10
43.15180357191298
 20
39.264187774658204
 10
43.24498199462891
 20
39.224818267822265
 10
43.330734439425996
 20
39.1800266011556
 10
43.409060906304255
 20
39.129812774658205
 10
43.47996139526367
 20
39.07417678833008
 10
43.49003952026367
 20
38.74430955674913
 10
43.52027389526367
 20
38.43719178941515
 10
43.57066452026368
 20
38.15282348632813
 10
43.64121139526368
 20
37.89120464748807
 10
43.73191452026368
 20
37.65233527289497
 10
43.842773895263676
 20
37.43621536254883
 10
43.97378952026368
 20
37.242844916449656
 10
44.124961395263675
 20
37.07222393459744
 10
44.29628952026367
 20
36.92435241699219
 10
44.48777389526367
 20
36.799230363633896
 10
44.69941452026367
 20
36.69685777452257
 10
44.931211395263674
 20
36.61723464965821
 10
45.183164520263674
 20
36.5603609890408
 10
45.45527389526367
 20
36.52623679267036
 10
45.74753952026367
 20
36.514862060546875
 10
45.9834029812283
 20
36.54509657118056
 10
46.20299999660916
 20
36.5898294406467
 10
46.40633056640626
 20
36.649060668945324
 10
46.59339469061958
 20
36.722790256076394
 10
46.764192369249145
 20
36.81101820203993
 10
46.91872360229492
 20
36.91374450683594
 10
47.05698838975694
 20
37.03096917046441
 10
47.1789867316352
 20
37.16269219292535
 10
47.284718627929685
 20
37.30891357421875
 10
47.37418407864041
 20
37.46963331434462
 10
47.44738308376736
 20
37.64485141330295
 10
47.50431564331055
 20
37.83456787109375
 10
47.544981757269966
 20
38.03878268771702
 10
47.569381425645616
 20
38.25749586317274
 10
47.5775146484375
 20
38.49070739746094
  0
LWPOLYLINE
  5
35
330
17
100
AcDbEntity
  8
0
100
AcDbPolyline
 90
199
 70
1
 10
30.617088317871094
 20
37.49615478515625
 10
30.614966617160373
 20
37.43975262112088
 10
30.608601515028216
 20
37.38724026150174
 10
30.597993011474614
 20
37.338617706298834
 10
30.583141106499568
 20
37.29388495551216
 10
30.564045800103088
 20
37.25304200914172
 10
30.54070709228516
 20
37.2160888671875
 10
30.51312498304579
 20
37.18302552964952
 10
30.481299472384983
 20
37.15385199652778
 10
30.445230560302733
 20
37.12856826782226
 10
30.404918246799046
 20
37.10717434353299
 10
30.360362531873914
 20
37.08967022365994
 10
30.311563415527345
 20
37.07605590820313
 10
30.258520897759333
 20
37.06633139716254
 10
30.20123497856988
 20
37.060496690538194
 10
30.139705657958984
 20
37.05855178833008
 10
27.83234405517578
 20
37.05855178833008
 10
27.69048411899143
 20
37.05310028076172
 10
27.558407626681863
 20
37.04028172810873
 10
27.43611457824707
 20
37.0200961303711
 10
27.323604973687072
 20
36.992543487548836
 10
27.22087881300185
 20
36.95762379964193
 10
27.127936096191405
 20
36.91533706665039
 10
27.044776823255752
 20
36.86568328857422
 10
26.97140099419488
 20
36.808662465413406
 10
26.90780860900879
 20
36.744274597167966
 10
26.853999667697487
 20
36.67251968383789
 10
26.809974170260958
 20
36.59339772542317
 10
26.77573211669922
 20
36.50690872192383
 10
26.75127350701226
 20
36.41305267333985
 10
26.736598341200086
 20
36.311829579671226
 10
26.731706619262695
 20
36.20323944091797
 10
26.73659834120009
 20
36.09464881049262
 10
26.751273507012264
 20
35.99342525906034
 10
26.775732116699228
 20
35.8995687866211
 10
26.80997417026096
 20
35.81307939317492
 10
26.853999667697487
 20
35.733957078721794
 10
26.907808609008786
 20
35.66220184326171
 10
26.97140099419488
 20
35.59781368679471
 10
27.044776823255752
 20
35.54079260932075
 10
27.127936096191405
 20
35.49113861083985
 10
27.220878813001846
 20
35.448851691352
 10
27.32360497368707
 20
35.4139318508572
 10
27.43611457824707
 20
35.38637908935547
 10
27.55840762668186
 20
35.36619340684679
 10
27.690484118991428
 20
35.353374803331164
 10
27.83234405517578
 20
35.347923278808594
 10
33.04379653930664
 20
35.347923278808594
 10
33.2095844523112
 20
35.35175415039063
 10
33.36393875122071
 20
35.36324676513672
 10
33.506859436035164
 20
35.38240112304688
 10
33.638346506754566
 20
35.40921722412109
 10
33.758399963378906
 20
35.443695068359375
 10
33.86701980590821
 20
35.48583465576172
 10
33.964206034342446
 20
35.535635986328124
 10
34.04995864868164
 20
35.59309906005859
 10
34.12427764892578
 20
35.65822387695313
 10
34.18716303507487
 20
35.73101043701172
 10
34.23861480712891
 20
35.81145874023437
 10
34.278632965087894
 20
35.899568786621096
 10
34.30721750895182
 20
35.99534057617188
 10
34.324368438720704
 20
36.098774108886715
 10
34.33008575439453
 20
36.209869384765625
 10
34.2641944885254
 20
36.85080230712891
 10
34.15492604573568
 20
37.44753295898438
 10
34.0022804260254
 20
38.00006134033204
 10
33.80625762939454
 20
38.50838745117188
 10
33.5668576558431
 20
38.972511291503906
 10
33.284080505371094
 20
39.392432861328125
 10
32.957926177978514
 20
39.76815216064453
 10
32.58839467366536
 20
40.099669189453124
 10
32.17548599243164
 20
40.386983947753905
 10
31.719200134277344
 20
40.630096435546875
 10
31.219537099202476
 20
40.829006652832035
 10
30.676496887207033
 20
40.98371459960938
 10
30.09007949829102
 20
41.09422027587891
 10
29.460284932454424
 20
41.160523681640626
 10
28.787113189697266
 20
41.18262481689453
 10
27.985754928588868
 20
41.151683213975694
 10
27.236614329020185
 20
41.05885840521919
 10
26.539691390991216
 20
40.90415039062501
 10
25.894986114501958
 20
40.68755917019315
 10
25.30249849955241
 20
40.409084743923614
 10
24.762228546142577
 20
40.06872711181641
 10
24.27417625427246
 20
39.66648627387153
 10
23.838341623942057
 20
39.20236223008898
 10
23.454724655151367
 20
38.67635498046875
 10
23.12332534790039
 20
38.08846452501085
 10
22.84414370218913
 20
37.43869086371528
 10
22.61717971801758
 20
36.72703399658204
 10
22.44243339538574
 20
35.95349392361111
 10
22.319904734293623
 20
35.118070644802515
 10
22.24959373474121
 20
34.22076416015625
 10
22.28330518934462
 20
33.37815029568143
 10
22.370295164320204
 20
32.593647732204865
 10
22.510563659667973
 20
31.86725646972657
 10
22.704110675387916
 20
31.198976508246535
 10
22.950936211480037
 20
30.588807847764762
 10
23.25104026794434
 20
30.036750488281253
 10
23.604422844780817
 20
29.542804429796007
 10
24.011083941989476
 20
29.106969672309027
 10
24.471023559570312
 20
28.729246215820318
 10
24.98424169752333
 20
28.409634060329864
 10
25.550738355848523
 20
28.148133205837674
 10
26.170513534545897
 20
27.944743652343753
 10
26.843567233615452
 20
27.79946539984809
 10
27.569899453057186
 20
27.712298448350694
 10
28.349510192871094
 20
27.683242797851562
 10
28.627986907958984
 20
27.683242797851562
 10
29.296915045844184
 20
27.795103912353515
 10
29.924587724473742
 20
27.939733683268233
 10
30.511004943847663
 20
28.117132110595712
 10
31.056166703965932
 20
28.327299194335943
 10
31.56007300482856
 20
28.570234934488933
 10
32.02272384643555
 20
28.845939331054687
 10
32.444119228786896
 20
29.1544123840332
 10
32.8242591518826
 20
29.495654093424477
 10
33.16314361572265
 20
29.869664459228517
 10
33.460772620307075
 20
30.276443481445312
 10
33.71714616563585
 20
30.71599116007487
 10
33.932264251708986
 20
31.18830749511719
 10
34.106126878526474
 20
31.693392486572264
 10
34.238734046088325
 20
32.231246134440106
 10
34.33008575439453
 20
32.8018684387207
 10
34.309103969997835
 20
32.892512563069666
 10
34.28152136908637
 20
32.97702733357748
 10
34.247337951660164
 20
33.055412750244145
 10
34.20655371771919
 20
33.12766881306967
 10
34.15916866726346
 20
33.19379552205404
 10
34.105182800292965
 20
33.25379287719726
 10
34.044596116807725
 20
33.30766087849935
 10
33.97740861680772
 20
33.35539952596029
 10
33.90362030029297
 20
33.39700881958008
 10
33.82323116726346
 20
33.432488759358726
 10
33.73624121771918
 20
33.46183934529623
 10
33.64265045166016
 20
33.48506057739258
 10
33.542458869086374
 20
33.50215245564779
 10
33.43566646999783
 20
33.51311498006185
 10
33.32227325439453
 20
33.517948150634766
 10
33.159549407958984
 20
33.15218885633681
 10
32.975490620931
 20
32.81165434095595
 10
32.77009689331055
 20
32.496344604492194
 10
32.54336822509766
 20
32.20625964694553
 10
32.29530461629232
 20
31.941399468315975
 10
32.025906066894535
 20
31.701764068603513
 10
31.735172576904297
 20
31.48735344780816
 10
31.423104146321613
 20
31.298167605929905
 10
31.089700775146483
 20
31.134206542968748
 10
30.734962463378906
 20
30.995470258924698
 10
30.35888921101888
 20
30.881958753797743
 10
29.961481018066408
 20
30.79367202758789
 10
29.542737884521483
 20
30.73061008029514
 10
29.102659810384118
 20
30.69277291191949
 10
28.641246795654297
 20
30.680160522460938
 10
28.230695580376523
 20
30.69778250800239
 10
27.847726626925997
 20
30.75064846462674
 10
27.492339935302738
 20
30.83875839233399
 10
27.164535505506734
 20
30.962112291124136
 10
26.864313337537983
 20
31.12071016099718
 10
26.591673431396483
 20
31.31455200195312
 10
26.34661578708225
 20
31.54363781399197
 10
26.12914040459527
 20
31.807967597113716
 10
25.939247283935547
 20
32.10754135131836
 10
25.77693642510308
 20
32.442359076605904
 10
25.642207828097874
 20
32.812420772976346
 10
25.535061492919922
 20
33.217726440429686
 10
25.45549741956923
 20
33.658276078965926
 10
25.40351560804579
 20
34.13406968858507
 10
25.37911605834961
 20
34.64510726928711
 10
25.403338936699765
 20
35.25568834092882
 10
25.45125425550673
 20
35.82501395331489
 10
25.522862014770514
 20
36.353084106445316
 10
25.618162214491104
 20
36.8398988003201
 10
25.737154854668514
 20
37.285458034939246
 10
25.879839935302734
 20
37.689761810302734
 10
26.04621745639377
 20
38.05281012641059
 10
26.236287417941625
 20
38.374602983262804
 10
26.450049819946287
 20
38.65514038085937
 10
26.68750466240777
 20
38.8944223192003
 10
26.948651945326063
 20
39.09244879828559
 10
27.233491668701173
 20
39.249219818115236
 10
27.542023832533093
 20
39.36473537868923
 10
27.874248436821834
 20
39.4389954800076
 10
28.230165481567383
 20
39.47200012207031
 10
28.501508789062502
 20
39.46321858723959
 10
28.756821365356448
 20
39.4368739827474
 10
28.996103210449224
 20
39.392966308593756
 10
29.219354324340824
 20
39.33149556477865
 10
29.426574707031254
 20
39.252461751302086
 10
29.617764358520503
 20
39.155864868164066
 10
29.792923278808594
 20
39.04170491536458
 10
29.952051467895508
 20
38.90998189290365
 10
30.09514892578125
 20
38.76069580078125
 10
30.22221565246582
 20
38.5938466389974
 10
30.33325164794922
 20
38.409434407552084
 10
30.428256912231447
 20
38.20745910644531
 10
30.507231445312502
 20
37.98792073567708
 10
30.57017524719238
 20
37.750819295247396
 10
30.617088317871094
 20
37.49615478515625
  0
LWPOLYLINE
  5
36
330
17
100
AcDbEntity
  8
0
100
AcDbPolyline
 90
196
 70
1
 10
63.18534851074219
 20
40.22785949707031
 10
63.1068453640408
 20
40.30671596950955
 10
63.026927761501746
 20
40.37708563910591
 10
62.945595703125015
 20
40.438968505859386
 10
62.8628491889106
 20
40.492364569769975
 10
62.77868821885851
 20
40.53727383083767
 10
62.69311279296875
 20
40.573696289062504
 10
62.60612291124132
 20
40.60163194444445
 10
62.51771857367622
 20
40.621080796983506
 10
62.427899780273435
 20
40.63204284667969
 10
62.33666653103299
 20
40.63451809353298
 10
62.24401882595486
 20
40.6285065375434
 10
62.14995666503906
 20
40.61400817871094
 10
62.05448004828559
 20
40.59102301703559
 10
61.95758897569444
 20
40.559551052517364
 10
61.859283447265625
 20
40.51959228515625
 10
61.44107042100695
 20
40.346437004937066
 10
61.04926093207466
 20
40.14169182671442
 10
60.683854980468766
 20
39.90535675048829
 10
60.344852566189246
 20
39.63743177625868
 10
60.03225368923612
 20
39.33791690402562
 10
59.74605834960938
 20
39.00681213378906
 10
59.48626654730903
 20
38.644117465549044
 10
59.252878282335075
 20
38.24983289930556
 10
59.045893554687495
 20
37.82395843505859
 10
58.86531236436632
 20
37.36649407280816
 10
58.71113471137153
 20
36.87743981255426
 10
58.58336059570313
 20
36.356795654296874
 10
58.48199001736111
 20
35.804561598036024
 10
58.40702297634549
 20
35.2207376437717
 10
58.35845947265625
 20
34.605323791503906
 10
58.40843729654949
 20
33.71998116387261
 10
58.51593709309896
 20
32.89569664849176
 10
58.6809588623047
 20
32.13247024536133
 10
58.903502604166675
 20
31.430301954481344
 10
59.183568318684905
 20
30.789191775851787
 10
59.521156005859375
 20
30.20913970947266
 10
59.916265665690105
 20
29.690145755343966
 10
60.36889729817709
 20
29.232209913465713
 10
60.879050903320305
 20
28.83533218383789
 10
61.44672648111979
 20
28.499512566460503
 10
62.07192403157552
 20
28.22475106133355
 10
62.754643554687505
 20
28.01104766845703
 10
63.49488505045573
 20
27.85840238783095
 10
64.29264851888021
 20
27.766815219455296
 10
65.14793395996094
 20
27.736286163330078
 10
65.96567626953124
 20
27.766166924370662
 10
66.72860778808595
 20
27.855809207492406
 10
67.436728515625
 20
28.005213012695314
 10
68.09003845214845
 20
28.21437833997939
 10
68.68853759765625
 20
28.48330518934462
 10
69.23222595214844
 20
28.811993560791016
 10
69.721103515625
 20
29.200443454318577
 10
70.15517028808594
 20
29.6486548699273
 10
70.53442626953125
 20
30.15662780761719
 10
70.85887145996094
 20
30.724362267388237
 10
71.128505859375
 20
31.35185824924045
 10
71.34332946777344
 20
32.03911575317383
 10
71.50334228515625
 20
32.786134779188366
 10
71.60854431152345
 20
33.592915327284075
 10
71.658935546875
 20
34.45945739746094
 10
71.61927137586807
 20
35.216613447401265
 10
71.53564059787327
 20
35.92862419976129
 10
71.40804321289065
 20
36.59548965454102
 10
71.23647922092016
 20
37.21720981174046
 10
71.02094862196182
 20
37.793784671359596
 10
70.76145141601562
 20
38.32521423339844
 10
70.4579876030816
 20
38.81149849785699
 10
70.11055718315973
 20
39.252637464735244
 10
69.71916015625
 20
39.6486311340332
 10
69.28379652235243
 20
39.99947950575087
 10
68.80446628146701
 20
40.30518257988824
 10
68.28116943359376
 20
40.56574035644532
 10
67.71390597873264
 20
40.78115283542209
 10
67.10267591688368
 20
40.95142001681858
 10
66.44747924804688
 20
41.076541900634766
 10
66.32808152940538
 20
41.09105819702149
 10
66.21378078884548
 20
41.10104385375977
 10
66.10457702636721
 20
41.10649887084962
 10
66.0004702419705
 20
41.10742324829102
 10
65.90146043565538
 20
41.103816986083984
 10
65.80754760742188
 20
41.09568008422852
 10
65.71873175726996
 20
41.08301254272461
 10
65.63501288519966
 20
41.065814361572265
 10
65.55639099121093
 20
41.04408554077148
 10
65.48286607530382
 20
41.017826080322266
 10
65.4144381374783
 20
40.987035980224604
 10
65.35110717773438
 20
40.95171524047852
 10
65.29287319607205
 20
40.91186386108399
 10
65.23973619249132
 20
40.867481842041016
 10
65.19169616699219
 20
40.81856918334961
 10
65.16615183512371
 20
40.788102874755864
 10
65.14232442220053
 20
40.756110483805344
 10
65.12021392822267
 20
40.722592010498055
 10
65.09982035319011
 20
40.68754745483399
 10
65.08114369710287
 20
40.650976816813156
 10
65.06418395996094
 20
40.612880096435546
 10
65.04894114176433
 20
40.573257293701175
 10
65.03541524251303
 20
40.53210840861003
 10
65.02360626220704
 20
40.489433441162106
 10
65.01351420084636
 20
40.44523239135742
 10
65.00513905843098
 20
40.39950525919596
 10
64.99848083496094
 20
40.35225204467773
 10
64.9935395304362
 20
40.303472747802736
 10
64.99031514485678
 20
40.25316736857096
 10
64.98880767822266
 20
40.20133590698242
 10
64.9929332139757
 20
40.09147867838542
 10
65.00530982123482
 20
39.988222300211596
 10
65.02593750000001
 20
39.89156677246094
 10
65.05481625027127
 20
39.80151209513347
 10
65.09194607204861
 20
39.71805826822917
 10
65.13732696533204
 20
39.64120529174805
 10
65.19095893012152
 20
39.5709531656901
 10
65.2528419664171
 20
39.507301890055345
 10
65.32297607421876
 20
39.450251464843745
 10
65.40136125352647
 20
39.39980189005534
 10
65.48799750434029
 20
39.3559531656901
 10
65.58288482666016
 20
39.318705291748046
 10
65.6860232204861
 20
39.288058268229165
 10
65.79741268581814
 20
39.26401209513347
 10
65.91705322265625
 20
39.24656677246094
 10
66.21102789984809
 20
39.14443013509115
 10
66.48472846137153
 20
39.0112929280599
 10
66.73815490722657
 20
38.8471551513672
 10
66.97130723741321
 20
38.65201680501303
 10
67.18418545193143
 20
38.4258778889974
 10
67.37678955078125
 20
38.16873840332031
 10
67.54911953396268
 20
37.880598347981774
 10
67.7011754014757
 20
37.56145772298177
 10
67.83295715332032
 20
37.21131652832031
 10
67.94446478949652
 20
36.8301747639974
 10
68.03569831000434
 20
36.41803243001302
 10
68.10665771484375
 20
35.97488952636719
 10
68.15734300401476
 20
35.50074605305989
 10
68.18775417751736
 20
34.99560201009115
 10
68.19789123535156
 20
34.45945739746094
 10
68.18433586968317
 20
33.89207648383247
 10
68.14366977267795
 20
33.36041103786892
 10
68.07589294433595
 20
32.86446105957032
 10
67.98100538465712
 20
32.40422654893664
 10
67.85900709364151
 20
31.979707505967884
 10
67.70989807128908
 20
31.590903930664062
 10
67.53367831759982
 20
31.237815823025173
 10
67.33034783257379
 20
30.920443183051212
 10
67.09990661621094
 20
30.638786010742187
 10
66.84235466851129
 20
30.39284430609809
 10
66.55769198947483
 20
30.182618069118924
 10
66.24591857910156
 20
30.00810729980469
 10
65.90703443739149
 20
29.869311998155382
 10
65.54103956434462
 20
29.766232164171008
 10
65.14793395996094
 20
29.698867797851562
 10
64.74922873602974
 20
29.735879804823135
 10
64.37704494900174
 20
29.81155409071181
 10
64.03138259887697
 20
29.925890655517584
 10
63.71224168565539
 20
30.078889499240457
 10
63.41962220933703
 20
30.270550621880428
 10
63.153524169921866
 20
30.500874023437497
 10
62.91394756740994
 20
30.769859703911674
 10
62.70089240180121
 20
31.077507663302953
 10
62.5143586730957
 20
31.42381790161133
 10
62.35434638129341
 20
31.808790418836807
 10
62.22085552639432
 20
32.232425214979386
 10
62.11388610839845
 20
32.69472229003907
 10
62.03343812730578
 20
33.19568164401584
 10
61.97951158311632
 20
33.73530327690972
 10
61.95210647583008
 20
34.3135871887207
 10
61.95699818929037
 20
34.72325419108073
 10
61.97167332967123
 20
35.114179433186855
 10
61.99613189697267
 20
35.486362915039074
 10
62.03037389119467
 20
35.839804636637375
 10
62.07439931233724
 20
36.17450459798178
 10
62.12820816040039
 20
36.49046279907226
 10
62.19180043538411
 20
36.787679239908854
 10
62.26517613728841
 20
37.06615392049154
 10
62.34833526611328
 20
37.32588684082032
 10
62.441277821858726
 20
37.56687800089519
 10
62.54400380452474
 20
37.78912740071615
 10
62.656513214111335
 20
37.992635040283204
 10
62.778806050618485
 20
38.17740091959636
 10
62.91088231404622
 20
38.3434250386556
 10
63.05274200439453
 20
38.49070739746094
 10
63.160595770941846
 20
38.613943074544274
 10
63.25430477566189
 20
38.736117960611985
 10
63.3338690185547
 20
38.85723205566407
 10
63.39928849962024
 20
38.97728535970053
 10
63.45056321885851
 20
39.09627787272136
 10
63.48769317626953
 20
39.21420959472656
 10
63.5106783718533
 20
39.331080525716146
 10
63.519518805609806
 20
39.446890665690105
 10
63.51421447753906
 20
39.56164001464844
 10
63.49476538764106
 20
39.67532857259114
 10
63.4611715359158
 20
39.78795633951823
 10
63.413432922363285
 20
39.89952331542969
 10
63.35154954698351
 20
40.01002950032552
 10
63.27552140977647
 20
40.11947489420573
 10
63.18534851074219
 20
40.22785949707031
  0
LWPOLYLINE
  5
37
330
17
100
AcDbEntity
  8
0
100
AcDbPolyline
 90
186
 70
1
 10
78.91252899169922
 20
39.92285919189453
 10
78.9088749186198
 20
40.032834777832036
 10
78.89791269938151
 20
40.136445210774745
 10
78.87964233398439
 20
40.233690490722665
 10
78.8540638224284
 20
40.32457061767578
 10
78.82117716471355
 20
40.40908559163412
 10
78.78098236083984
 20
40.487235412597656
 10
78.73347941080729
 20
40.559020080566405
 10
78.67866831461589
 20
40.624439595540366
 10
78.61654907226563
 20
40.68349395751953
 10
78.5471216837565
 20
40.736183166503906
 10
78.47038614908854
 20
40.78250722249349
 10
78.38634246826172
 20
40.82246612548829
 10
78.29499064127604
 20
40.856059875488285
 10
78.19633066813151
 20
40.88328847249349
 10
78.09036254882812
 20
40.904151916503906
 10
73.56846618652344
 20
40.904151916503906
 10
73.57300431993272
 20
40.784805942111554
 10
73.5866187201606
 20
40.670764194064674
 10
73.60930938720705
 20
40.56202667236329
 10
73.64107632107206
 20
40.45859337700738
 10
73.68191952175565
 20
40.36046430799696
 10
73.73183898925781
 20
40.26763946533203
 10
73.79083472357856
 20
40.18011884901259
 10
73.85890672471788
 20
40.09790245903863
 10
73.93605499267578
 20
40.02099029541016
 10
74.02227952745227
 20
39.94938235812717
 10
74.11758032904731
 20
39.88307864718967
 10
74.22195739746094
 20
39.82207916259766
 10
74.33541073269313
 20
39.76638390435113
 10
74.45794033474392
 20
39.71599287245009
 10
74.58954620361328
 20
39.67090606689453
 10
74.72121002197267
 20
39.62623277452257
 10
74.84391550699871
 20
39.577080247667105
 10
74.95766265869142
 20
39.52344848632813
 10
75.0624514770508
 20
39.46533749050565
 10
75.15828196207684
 20
39.40274726019966
 10
75.24515411376953
 20
39.335677795410156
 10
75.32306793212891
 20
39.264129096137154
 10
75.39202341715495
 20
39.18810116238065
 10
75.45202056884766
 20
39.10759399414063
 10
75.50305938720703
 20
39.0226075914171
 10
75.54513987223308
 20
38.93314195421007
 10
75.57826202392579
 20
38.83919708251953
 10
75.60242584228516
 20
38.74077297634548
 10
75.6176313273112
 20
38.63786963568794
 10
75.6238784790039
 20
38.530487060546875
 10
75.6238784790039
 20
30.388423919677734
 10
75.61792599148221
 20
30.2826919386122
 10
75.6036044989692
 20
30.181203392876522
 10
75.58091400146486
 20
30.08395828247071
 10
75.5498544989692
 20
29.99095660739475
 10
75.51042599148221
 20
29.90219836764866
 10
75.46262847900391
 20
29.81768356323242
 10
75.40646196153429
 20
29.73741219414605
 10
75.34192643907335
 20
29.66138426038954
 10
75.2690219116211
 20
29.58959976196289
 10
75.18774837917752
 20
29.522058698866104
 10
75.09810584174262
 20
29.458761071099175
 10
75.00009429931642
 20
29.39970687866211
 10
74.89371375189887
 20
29.344896121554903
 10
74.77896419949002
 20
29.294328799777563
 10
74.65584564208984
 20
29.248004913330078
 10
74.53278601752388
 20
29.201503736707902
 10
74.41821326361763
 20
29.150405561659074
 10
74.31212738037111
 20
29.0947103881836
 10
74.2145283677843
 20
29.03441821628147
 10
74.12541622585721
 20
28.969529045952697
 10
74.04479095458984
 20
28.900042877197265
 10
73.97265255398221
 20
28.82595971001519
 10
73.9090010240343
 20
28.747279544406467
 10
73.85383636474609
 20
28.664002380371095
 10
73.80715857611762
 20
28.576128217909073
 10
73.76896765814888
 20
28.483657057020398
 10
73.73926361083984
 20
28.386588897705078
 10
73.71804643419054
 20
28.28492373996311
 10
73.70531612820095
 20
28.17866158379449
 10
73.7010726928711
 20
28.06780242919922
 10
81.10054016113281
 20
28.06780242919922
 10
81.09399834526911
 20
28.195547281901046
 10
81.07790886773005
 20
28.31710378011068
 10
81.05227172851563
 20
28.432471923828132
 10
81.01708692762588
 20
28.54165171305339
 10
80.97235446506079
 20
28.64464314778646
 10
80.91807434082031
 20
28.741446228027346
 10
80.8542465549045
 20
28.832060953776043
 10
80.78087110731337
 20
28.916487325032552
 10
80.69794799804687
 20
28.994725341796872
 10
80.60547722710504
 20
29.066775004069008
 10
80.50345879448784
 20
29.13263631184896
 10
80.39189270019531
 20
29.19230926513672
 10
80.27077894422743
 20
29.245793863932292
 10
80.1401175265842
 20
29.293090108235678
 10
79.99990844726562
 20
29.334197998046875
 10
79.85975731743709
 20
29.374422319200306
 10
79.7292717827691
 20
29.41906684027778
 10
79.60845184326173
 20
29.4681315612793
 10
79.49729749891495
 20
29.521616482204866
 10
79.39580874972873
 20
29.579521603054474
 10
79.30398559570312
 20
29.641846923828123
 10
79.2218280368381
 20
29.708592444525824
 10
79.14933607313368
 20
29.77975816514757
 10
79.08650970458984
 20
29.85534408569336
 10
79.0333489312066
 20
29.935350206163193
 10
78.98985375298395
 20
30.019776526557074
 10
78.95602416992188
 20
30.108623046875003
 10
78.9318601820204
 20
30.201889767116974
 10
78.91736178927951
 20
30.299576687282986
 10
78.91252899169922
 20
30.401683807373047
 10
78.91252899169922
 20
36.50160217285156
 10
78.9334514702691
 20
36.73233800252279
 10
78.96439314100479
 20
36.947161051432296
 10
79.00535400390626
 20
37.14607131958008
 10
79.05633405897353
 20
37.32906880696615
 10
79.1173333062066
 20
37.4961535135905
 10
79.18835174560546
 20
37.64732543945313
 10
79.26938937717014
 20
37.78258458455404
 10
79.36044620090061
 20
37.901930948893224
 10
79.46152221679688
 20
38.0053645324707
 10
79.57261742485895
 20
38.09288533528646
 10
79.69373182508681
 20
38.1644933573405
 10
79.82486541748048
 20
38.22018859863282
 10
79.96601820203993
 20
38.25997105916341
 10
80.11719017876518
 20
38.28384073893229
 10
80.27838134765625
 20
38.29179763793945
 10
80.35617699517144
 20
38.16702896118164
 10
80.44104505750867
 20
38.05086502075196
 10
80.53298553466799
 20
37.9433058166504
 10
80.63199842664932
 20
37.84435134887696
 10
80.73808373345271
 20
37.75400161743164
 10
80.85124145507812
 20
37.67225662231445
 10
80.97147159152561
 20
37.59911636352539
 10
81.09877414279515
 20
37.534580841064454
 10
81.23314910888672
 20
37.47865005493164
 10
81.37459648980035
 20
37.43132400512695
 10
81.52311628553602
 20
37.39260269165039
 10
81.67870849609375
 20
37.362486114501955
 10
81.84137312147352
 20
37.34097427368164
 10
82.01111016167535
 20
37.32806716918945
 10
82.18791961669922
 20
37.32376480102539
 10
82.39985487196181
 20
37.34757507324219
 10
82.59717390272353
 20
37.38364415486654
 10
82.77987670898439
 20
37.43197204589845
 10
82.94796329074437
 20
37.4925587463379
 10
83.10143364800348
 20
37.565404256184905
 10
83.2402877807617
 20
37.65050857543945
 10
83.36452568901909
 20
37.74787170410156
 10
83.4741473727756
 20
37.85749364217123
 10
83.56915283203125
 20
37.97937438964844
 10
83.64954206678603
 20
38.1135139465332
 10
83.71531507703993
 20
38.25991231282552
 10
83.76647186279297
 20
38.41856948852539
 10
83.80301242404514
 20
38.58948547363281
 10
83.82493676079643
 20
38.77266026814779
 10
83.83224487304688
 20
38.96809387207031
 10
83.79446645100911
 20
39.21763024224176
 10
83.74124674479167
 20
39.44995720757379
 10
83.67258575439455
 20
39.66507476806642
 10
83.58848347981773
 20
39.86298292371962
 10
83.4889399210612
 20
40.043681674533424
 10
83.373955078125
 20
40.207171020507815
 10
83.24352895100911
 20
40.35345096164279
 10
83.09766153971353
 20
40.48252149793837
 10
82.93635284423829
 20
40.59438262939453
 10
82.75960286458334
 20
40.689034356011284
 10
82.5674116007487
 20
40.76647667778863
 10
82.35977905273438
 20
40.826709594726566
 10
82.13670522054036
 20
40.86973310682509
 10
81.89819010416667
 20
40.8955472140842
 10
81.64423370361328
 20
40.904151916503906
 10
81.45380957709419
 20
40.898022528754346
 10
81.2644463772244
 20
40.87963436550565
 10
81.07614410400393
 20
40.84898742675782
 10
80.88890275743275
 20
40.80608171251086
 10
80.70272233751085
 20
40.75091722276476
 10
80.51760284423827
 20
40.68349395751953
 10
80.33354427761502
 20
40.60381191677517
 10
80.15054663764107
 20
40.51187110053168
 10
79.96860992431641
 20
40.407671508789065
 10
79.78773413764105
 20
40.29121314154731
 10
79.60791927761503
 20
40.16249599880642
 10
79.42916534423829
 20
40.021520080566404
 10
79.25147233751085
 20
39.86828538682726
 10
79.07484025743273
 20
39.70279191758898
 10
78.8992691040039
 20
39.52503967285156
 10
78.91252899169922
 20
39.92285919189453
  0
LWPOLYLINE
  5
38
330
17
100
AcDbEntity
  8
0
100
AcDbPolyline
 90
110
 70
1
 10
122.0959701538086
 20
29.30767822265625
 10
121.97205698649088
 20
29.344778628879126
 10
121.85668955485028
 20
29.387124362521703
 10
121.74986785888676
 20
29.43471542358399
 10
121.65159189860027
 20
29.487551812065977
 10
121.5618616739909
 20
29.545633527967667
 10
121.4806771850586
 20
29.608960571289064
 10
121.40803843180339
 20
29.67753294203016
 10
121.34394541422526
 20
29.751350640190974
 10
121.28839813232422
 20
29.83041366577148
 10
121.24139658610027
 20
29.914722018771705
 10
121.20294077555339
 20
30.004275699191624
 10
121.1730307006836
 20
30.09907470703125
 10
121.1516663614909
 20
30.199119042290583
 10
121.13884775797526
 20
30.30440870496962
 10
121.13457489013672
 20
30.41494369506836
 10
121.13457489013672
 20
40.05546951293945
 10
121.1309797498915
 20
40.16485524495443
 10
121.12019432915582
 20
40.266697133382166
 10
121.10221862792973
 20
40.360995178222666
 10
121.07705264621312
 20
40.447749379475916
 10
121.0446963840061
 20
40.52695973714193
 10
121.0051498413086
 20
40.5986262512207
 10
120.95841301812067
 20
40.662748921712236
 10
120.90448591444228
 20
40.719327748616536
 10
120.84336853027344
 20
40.76836273193359
 10
120.77506086561415
 20
40.80985387166341
 10
120.69956292046442
 20
40.84380116780599
 10
120.61687469482423
 20
40.870204620361335
 10
120.52699618869357
 20
40.88906422932943
 10
120.42992740207248
 20
40.90037999471029
 10
120.32566833496094
 20
40.904151916503906
 10
115.9363784790039
 20
40.904151916503906
 10
115.94563215467664
 20
40.788312462700745
 10
115.96278323703343
 20
40.67771833631728
 10
115.98783172607425
 20
40.572369537353524
 10
116.02077762179907
 20
40.472266065809464
 10
116.06162092420792
 20
40.37740792168512
 10
116.11036163330078
 20
40.287795104980475
 10
116.1669997490777
 20
40.203427615695524
 10
116.23153527153863
 20
40.124305453830296
 10
116.30396820068358
 20
40.05042861938477
 10
116.3842985365126
 20
39.98179711235895
 10
116.47252627902562
 20
39.91841093275282
 10
116.56865142822267
 20
39.86027008056641
 10
116.67267398410374
 20
39.8073745557997
 10
116.78459394666883
 20
39.759724358452694
 10
116.90441131591797
 20
39.71731948852539
 10
117.02416975233291
 20
39.675798678927954
 10
117.13591291639543
 20
39.630800662570536
 10
117.2396408081055
 20
39.58232543945313
 10
117.33535342746312
 20
39.53037300957574
 10
117.42305077446834
 20
39.47494337293837
 10
117.5027328491211
 20
39.41603652954102
 10
117.57439965142143
 20
39.35365247938368
 10
117.63805118136935
 20
39.28779122246637
 10
117.69368743896484
 20
39.21845275878906
 10
117.74130842420792
 20
39.145637088351776
 10
117.78091413709852
 20
39.069344211154515
 10
117.81250457763673
 20
38.989574127197265
 10
117.83607974582249
 20
38.906326836480034
 10
117.85163964165582
 20
38.81960233900283
 10
117.85918426513672
 20
38.729400634765625
 10
117.85918426513672
 20
30.388423919677734
 10
117.8552355278863
 20
30.27270233154297
 10
117.84338931613499
 20
30.162461802164714
 10
117.82364562988285
 20
30.057702331542973
 10
117.7960044691298
 20
29.958423919677738
 10
117.76046583387588
 20
29.86462656656901
 10
117.71702972412109
 20
29.776310272216797
 10
117.66569613986546
 20
29.693475036621095
 10
117.60646508110894
 20
29.6161208597819
 10
117.53933654785158
 20
29.544247741699223
 10
117.46431054009332
 20
29.477855682373047
 10
117.3813870578342
 20
29.416944681803386
 10
117.29056610107423
 20
29.361514739990238
 10
117.19184766981337
 20
29.311565856933598
 10
117.08523176405166
 20
29.267098032633466
 10
116.97071838378906
 20
29.228111267089844
 10
116.85620500352648
 20
29.18912499321832
 10
116.74958909776477
 20
29.144657626681862
 10
116.65087066650393
 20
29.094709167480474
 10
116.56004970974395
 20
29.039279615614156
 10
116.47712622748483
 20
28.9783689710829
 10
116.40210021972658
 20
28.91197723388672
 10
116.33497168646919
 20
28.84010440402561
 10
116.27574062771268
 20
28.762750481499566
 10
116.22440704345703
 20
28.679915466308593
 10
116.18097093370227
 20
28.591599358452694
 10
116.14543229844836
 20
28.497802157931858
 10
116.11779113769532
 20
28.398523864746096
 10
116.09804745144315
 20
28.2937644788954
 10
116.08620123969185
 20
28.183524000379776
 10
116.0822525024414
 20
28.06780242919922
 10
123.18997955322266
 20
28.06780242919922
 10
123.16861514621311
 20
28.195429416232642
 10
123.13988366021051
 20
28.31663231743707
 10
123.10378509521487
 20
28.431411132812507
 10
123.06031945122615
 20
28.539765862358944
 10
123.00948672824437
 20
28.641696506076393
 10
122.95128692626953
 20
28.737203063964845
 10
122.88572004530164
 20
28.826285536024308
 10
122.81278608534072
 20
28.908943922254775
 10
122.73248504638671
 20
28.985178222656252
 10
122.64481692843967
 20
29.054988437228733
 10
122.54978173149956
 20
29.118374565972225
 10
122.44737945556642
 20
29.175336608886724
 10
122.3376101006402
 20
29.225874565972223
 10
122.22047366672092
 20
29.269988437228733
 10
122.0959701538086
 20
29.30767822265625
  0
LWPOLYLINE
  5
39
330
17
100
AcDbEntity
  8
0
100
AcDbPolyline
 90
157
 70
1
 10
124.96691131591797
 20
40.904151916503906
 10
124.89648251003689
 20
40.89684373643664
 10
124.82664303249784
 20
40.889064093695744
 10
124.75739288330081
 20
40.880812988281264
 10
124.68873206244575
 20
40.87209042019315
 10
124.62066056993275
 20
40.86289638943143
 10
124.55317840576171
 20
40.8532308959961
 10
124.48628556993272
 20
40.843093939887154
 10
124.41998206244574
 20
40.8324855211046
 10
124.35426788330079
 20
40.82140563964844
 10
124.28914303249783
 20
40.80985429551866
 10
124.22460751003689
 20
40.797831488715275
 10
124.16066131591796
 20
40.78533721923828
 10
124.09730445014107
 20
40.772371487087675
 10
124.03453691270617
 20
40.758934292263454
 10
123.97235870361328
 20
40.745025634765625
 10
123.95909881591797
 20
40.75828552246094
 10
123.50823974609375
 20
40.572635650634766
 10
123.40313161214193
 20
40.52725992838541
 10
123.30401814778646
 20
40.480291900634775
 10
123.21089935302736
 20
40.431731567382826
 10
123.1237752278646
 20
40.381578928629565
 10
123.0426457722982
 20
40.329833984375
 10
122.96751098632814
 20
40.276496734619144
 10
122.89837086995443
 20
40.22156717936198
 10
122.83522542317709
 20
40.16504531860352
 10
122.77807464599609
 20
40.10693115234375
 10
122.72691853841147
 20
40.04722468058269
 10
122.68175710042317
 20
39.98592590332031
 10
122.64259033203126
 20
39.923034820556644
 10
122.60941823323569
 20
39.85855143229167
 10
122.58224080403646
 20
39.79247573852539
 10
122.5610580444336
 20
39.72480773925781
 10
122.55142405192058
 20
39.684381934271926
 10
122.54385182698569
 20
39.643408474392366
 10
122.53834136962892
 20
39.60188735961915
 10
122.53489267985027
 20
39.559818589952265
 10
122.53350575764975
 20
39.517202165391716
 10
122.53418060302735
 20
39.474038085937494
 10
122.53691721598308
 20
39.43032635158963
 10
122.54171559651692
 20
39.38606696234809
 10
122.5485757446289
 20
39.34125991821289
 10
122.55749766031902
 20
39.29590521918403
 10
122.56848134358724
 20
39.2500028652615
 10
122.58152679443361
 20
39.20355285644531
 10
122.59663401285808
 20
39.15655519273546
 10
122.61380299886068
 20
39.10900987413194
 10
122.6330337524414
 20
39.060916900634766
 10
122.6758211602105
 20
38.96567557440864
 10
122.72285200330946
 20
38.877978125678176
 10
122.7741262817383
 20
38.797824554443366
 10
122.82964399549698
 20
38.72521486070421
 10
122.88940514458551
 20
38.660149044460724
 10
122.95340972900391
 20
38.60262710571289
 10
123.02165774875218
 20
38.55264904446072
 10
123.09414920383028
 20
38.51021486070421
 10
123.17088409423829
 20
38.47532455444336
 10
123.25186241997613
 20
38.44797812567817
 10
123.33708418104385
 20
38.42817557440864
 10
123.4265493774414
 20
38.41591690063477
 10
123.52025800916884
 20
38.411202104356555
 10
123.61821007622613
 20
38.414031185574004
 10
123.72040557861328
 20
38.42440414428711
 10
124.55583190917969
 20
38.42440414428711
 10
124.68060058593751
 20
38.35762898763021
 10
124.7967645263672
 20
38.284606577555344
 10
124.90432373046879
 20
38.20533691406251
 10
125.0032781982422
 20
38.1198199971517
 10
125.09362792968751
 20
38.02805582682292
 10
125.17537292480468
 20
37.93004440307617
 10
125.24851318359374
 20
37.82578572591146
 10
125.31304870605467
 20
37.715279795328776
 10
125.36897949218749
 20
37.598526611328126
 10
125.41630554199219
 20
37.4755261739095
 10
125.45502685546874
 20
37.34627848307292
 10
125.4851434326172
 20
37.21078353881836
 10
125.5066552734375
 20
37.069041341145834
 10
125.51956237792969
 20
36.92105189005534
 10
125.52386474609375
 20
36.766815185546875
 10
125.52386474609375
 20
30.401683807373047
 10
125.5179113091363
 20
30.277681698269312
 10
125.50358900282119
 20
30.160280473497185
 10
125.48089782714847
 20
30.04948013305665
 10
125.44983778211807
 20
29.945280676947704
 10
125.41040886773006
 20
29.84768210517036
 10
125.36261108398438
 20
29.756684417724607
 10
125.30644443088107
 20
29.67228761461046
 10
125.24190890842014
 20
29.594491695827905
 10
125.16900451660156
 20
29.523296661376953
 10
125.08773125542535
 20
29.4587025112576
 10
124.9980891248915
 20
29.400709245469834
 10
124.90007812500001
 20
29.349316864013673
 10
124.79369825575087
 20
29.30452536688911
 10
124.6789495171441
 20
29.266334754096135
 10
124.55583190917969
 20
29.234745025634766
 10
124.43277228461372
 20
29.203154805501303
 10
124.31819953070747
 20
29.164963734944667
 10
124.21211364746097
 20
29.120171813964852
 10
124.11451463487415
 20
29.068779042561854
 10
124.02540249294705
 20
29.01078542073568
 10
123.94477722167967
 20
28.946190948486326
 10
123.87263882107206
 20
28.874995625813803
 10
123.80898729112414
 20
28.7971994527181
 10
123.75382263183593
 20
28.712802429199215
 10
123.70714484320746
 20
28.621804555257164
 10
123.66895392523872
 20
28.524205830891926
 10
123.6392498779297
 20
28.42000625610352
 10
123.61803270128038
 20
28.30920583089193
 10
123.6053023952908
 20
28.191804555257164
 10
123.60105895996094
 20
28.06780242919922
 10
130.72206115722656
 20
28.06780242919922
 10
130.71442911783853
 20
28.190242835150826
 10
130.69860493977865
 20
28.306494920518666
 10
130.67458862304693
 20
28.41655868530274
 10
130.64238016764324
 20
28.520434129503045
 10
130.60197957356772
 20
28.618121253119575
 10
130.5533868408203
 20
28.709620056152342
 10
130.49660196940104
 20
28.794930538601346
 10
130.43162495930991
 20
28.874052700466578
 10
130.35845581054687
 20
28.946986541748046
 10
130.277094523112
 20
29.013732062445747
 10
130.1875410970052
 20
29.07428926255968
 10
130.08979553222656
 20
29.128658142089847
 10
129.98385782877605
 20
29.17683870103624
 10
129.86972798665366
 20
29.218830939398874
 10
129.74740600585938
 20
29.254634857177734
 10
129.62519992404515
 20
29.290261959499784
 10
129.51142184787327
 20
29.33172375149197
 10
129.40607177734375
 20
29.3790202331543
 10
129.30914971245662
 20
29.432151404486767
 10
129.22065565321182
 20
29.49111726548937
 10
129.14058959960937
 20
29.555917816162108
 10
129.0689515516493
 20
29.62655305650499
 10
129.00574150933159
 20
29.70302298651801
 10
128.95095947265625
 20
29.78532760620117
 10
128.90460544162326
 20
29.873466915554474
 10
128.86667941623264
 20
29.967440914577907
 10
128.83718139648437
 20
30.067249603271488
 10
128.8161113823785
 20
30.1728929816352
 10
128.80346937391494
 20
30.284371049669055
 10
128.79925537109375
 20
30.401683807373047
 10
128.79925537109375
 20
37.03202819824219
 10
128.71621415879991
 20
37.531101921929256
 10
128.60853746202258
 20
37.995756768120664
 10
128.47622528076175
 20
38.42599273681641
 10
128.31927761501737
 20
38.82180982801649
 10
128.13769446478952
 20
39.183208041720924
 10
127.93147583007813
 20
39.51018737792968
 10
127.70062171088325
 20
39.802747836642794
 10
127.44513210720486
 20
40.060889417860245
 10
127.16500701904297
 20
40.28461212158203
 10
126.86024644639757
 20
40.47391594780816
 10
126.53085038926866
 20
40.62880089653863
 10
126.17681884765625
 20
40.749266967773444
 10
125.79815182156034
 20
40.835314161512585
 10
125.3948493109809
 20
40.88694247775608
 10
124.96691131591797
 20
40.904151916503906
  0
LWPOLYLINE
  5
3A
330
17
100
AcDbEntity
  8
0
100
AcDbPolyline
 90
479
 70
1
 10
139.6730194091797
 20
32.125572204589844
 10
140.0708465576172
 20
32.231658935546875
 10
140.5186457655165
 20
32.38919599745009
 10
140.93556226942275
 20
32.56123141818577
 10
141.32159606933595
 20
32.747765197753914
 10
141.67674716525607
 20
32.94879733615452
 10
142.00101555718317
 20
33.16432783338759
 10
142.2944012451172
 20
33.394356689453126
 10
142.55690422905815
 20
33.63888390435113
 10
142.78852450900607
 20
33.8979094780816
 10
142.98926208496096
 20
34.17143341064453
 10
143.15911695692276
 20
34.45945570203993
 10
143.29808912489148
 20
34.761976352267794
 10
143.4061785888672
 20
35.078995361328126
 10
143.48338534884982
 20
35.410512729220926
 10
143.5297094048394
 20
35.75652845594618
 10
143.54515075683594
 20
36.117042541503906
 10
143.53731262207032
 20
36.30216152615018
 10
143.5279420979818
 20
36.479147304958765
 10
143.51703918457034
 20
36.6479998779297
 10
143.50460388183598
 20
36.808719245062946
 10
143.49063618977868
 20
36.96130540635851
 10
143.47513610839843
 20
37.105758361816406
 10
143.4581036376953
 20
37.24207811143663
 10
143.43953877766927
 20
37.37026465521919
 10
143.4194415283203
 20
37.49031799316406
 10
143.39781188964844
 20
37.60223812527127
 10
143.37464986165367
 20
37.7060250515408
 10
143.34995544433593
 20
37.80167877197266
 10
143.32372863769533
 20
37.88919928656684
 10
143.29596944173178
 20
37.96858659532336
 10
143.2666778564453
 20
38.03984069824219
 10
143.54515075683594
 20
38.03984069824219
 10
143.77246846516928
 20
38.044025200737856
 10
143.98410909016928
 20
38.056578708224826
 10
144.18007263183597
 20
38.07750122070313
 10
144.36035909016928
 20
38.10679273817275
 10
144.5249684651693
 20
38.14445326063369
 10
144.67390075683593
 20
38.19048278808594
 10
144.80715596516927
 20
38.244881320529515
 10
144.92473409016927
 20
38.30764885796441
 10
145.02663513183592
 20
38.378785400390626
 10
145.11285909016928
 20
38.458290947808166
 10
145.18340596516927
 20
38.546165500217015
 10
145.23827575683595
 20
38.642409057617186
 10
145.27746846516925
 20
38.74702162000868
 10
145.30098409016927
 20
38.8600031873915
 10
145.30882263183594
 20
38.981353759765625
 10
145.3039898003472
 20
39.114962378607856
 10
145.28949130588109
 20
39.239966295030385
 10
145.26532714843754
 20
39.3563655090332
 10
145.2314973280165
 20
39.464160020616326
 10
145.18800184461807
 20
39.56334982977974
 10
145.13484069824216
 20
39.65393493652344
 10
145.07201388888888
 20
39.735915340847434
 10
144.99952141655814
 20
39.80929104275173
 10
144.91736328125
 20
39.87406204223633
 10
144.82553948296442
 20
39.930228339301216
 10
144.72405002170137
 20
39.9777899339464
 10
144.61289489746093
 20
40.016746826171875
 10
144.49207411024307
 20
40.04709901597765
 10
144.36158766004775
 20
40.068846503363716
 10
144.221435546875
 20
40.08198928833008
 10
141.62234497070312
 20
40.08198928833008
 10
141.4246130371094
 20
40.18795691596137
 10
141.2239343261719
 20
40.28661643134223
 10
141.02030883789067
 20
40.37796783447267
 10
140.81373657226564
 20
40.46201112535265
 10
140.60421752929688
 20
40.53874630398221
 10
140.39175170898437
 20
40.60817337036133
 10
140.17633911132813
 20
40.67029232449001
 10
139.95797973632813
 20
40.72510316636827
 10
139.73667358398438
 20
40.772605895996094
 10
139.51242065429688
 20
40.81280051337348
 10
139.28522094726563
 20
40.845687018500435
 10
139.05507446289062
 20
40.87126541137695
 10
138.82198120117187
 20
40.88953569200304
 10
138.58594116210938
 20
40.90049786037869
 10
138.34695434570312
 20
40.904151916503906
 10
137.62569105360242
 20
40.857710198296445
 10
136.9541700575087
 20
40.7749636162652
 10
136.3323913574219
 20
40.65591217041017
 10
135.76035495334204
 20
40.50055586073134
 10
135.2380608452691
 20
40.30889468722874
 10
134.76550903320313
 20
40.08092864990234
 10
134.3426995171441
 20
39.81665774875217
 10
133.969632297092
 20
39.516081983778214
 10
133.64630737304685
 20
39.179201354980464
 10
133.3727247450087
 20
38.80601586235895
 10
133.14888441297742
 20
38.39652550591363
 10
132.97478637695315
 20
37.95073028564453
 10
132.85043063693576
 20
37.46863020155165
 10
132.77581719292536
 20
36.95022525363498
 10
132.75094604492188
 20
36.39551544189453
 10
132.75890245225696
 20
36.15034013536241
 10
132.78277167426216
 20
35.90634355333117
 10
132.8225537109375
 20
35.663525695800786
 10
132.878248562283
 20
35.42188656277128
 10
132.94985622829861
 20
35.18142615424262
 10
133.03737670898437
 20
34.94214447021484
 10
133.14081000434027
 20
34.70404151068793
 10
133.2601561143663
 20
34.46711727566189
 10
133.3954150390625
 20
34.23137176513672
 10
133.54658677842883
 20
33.99680497911241
 10
133.71367133246528
 20
33.76341691758898
 10
133.89666870117188
 20
33.5312075805664
 10
134.09557888454862
 20
33.3001769680447
 10
134.3104018825955
 20
33.07032508002387
 10
134.5411376953125
 20
32.841651916503906
 10
134.5411376953125
 20
32.576438903808594
 10
134.32920145670573
 20
32.40705576578776
 10
134.1318815104167
 20
32.23837982177735
 10
133.94917785644535
 20
32.07041107177735
 10
133.78109049479167
 20
31.903149515787767
 10
133.62761942545575
 20
31.7365951538086
 10
133.4887646484375
 20
31.570747985839844
 10
133.36452616373697
 20
31.40560801188151
 10
133.25490397135417
 20
31.241175231933596
 10
133.15989807128906
 20
31.077449645996094
 10
133.07950846354169
 20
30.91443125406901
 10
133.01373514811198
 20
30.752120056152343
 10
132.962578125
 20
30.590516052246095
 10
132.92603739420574
 20
30.42961924235026
 10
132.90411295572918
 20
30.26942962646484
 10
132.8968048095703
 20
30.109947204589844
 10
132.90829745822484
 20
29.923060217963325
 10
132.9427754041884
 20
29.74430640326606
 10
133.00023864746098
 20
29.57368576049805
 10
133.08068718804256
 20
29.411198289659293
 10
133.1841210259332
 20
29.25684399074979
 10
133.31054016113282
 20
29.11062286376953
 10
133.4599445936415
 20
28.97253490871853
 10
133.6323343234592
 20
28.842580125596786
 10
133.82770935058593
 20
28.7207585144043
 10
134.04606967502173
 20
28.60707007514106
 10
134.28741529676648
 20
28.501514807807077
 10
134.55174621582032
 20
28.404092712402345
 10
134.83906243218317
 20
28.314803788926866
 10
135.14936394585504
 20
28.23364803738064
 10
135.48265075683594
 20
28.160625457763672
 10
135.66623725043402
 20
28.135223948160807
 10
135.86691535102
 20
28.112062021891276
 10
136.0846850585938
 20
28.091139678955084
 10
136.3195463731554
 20
28.072456919352216
 10
136.5714992947049
 20
28.056013743082687
 10
136.8405438232422
 20
28.041810150146485
 10
137.12667995876737
 20
28.029846140543622
 10
137.42990770128037
 20
28.02012171427409
 10
137.75022705078126
 20
28.01263687133789
 10
138.08763800726996
 20
28.007391611735027
 10
138.44214057074652
 20
28.004385935465493
 10
138.81373474121096
 20
28.003619842529297
 10
139.2024205186632
 20
28.005093332926435
 10
139.6081979031033
 20
28.008806406656902
 10
140.03106689453125
 20
28.014759063720703
 10
140.34653896331787
 20
28.017875376224517
 10
140.64583297729496
 20
28.016615642547613
 10
140.9289489364624
 20
28.010979865550993
 10
141.19588684082035
 20
28.000968048095707
 10
141.44664669036865
 20
27.986580193042755
 10
141.6812284851074
 20
27.96781630325317
 10
141.8996322250366
 20
27.944676381587982
 10
142.10185791015627
 20
27.917160430908204
 10
142.28790554046634
 20
27.885268454074865
 10
142.4577751159668
 20
27.849000453948975
 10
142.61146663665772
 20
27.808356433391573
 10
142.74898010253906
 20
27.76333639526368
 10
142.87031551361085
 20
27.713940342426298
 10
142.97547286987304
 20
27.660168277740475
 10
143.06445217132568
 20
27.60202020406723
 10
143.13725341796874
 20
27.53949612426758
 10
143.19387660980223
 20
27.472596041202543
 10
143.23432174682617
 20
27.401319957733154
 10
143.25858882904052
 20
27.32566787672043
 10
143.2666778564453
 20
27.24563980102539
 10
143.2666778564453
 20
26.834556579589844
 10
143.1672514512804
 20
26.62433085123698
 10
143.04578294542102
 20
26.428603413899744
 10
142.9022723388672
 20
26.247374267578127
 10
142.73671963161897
 20
26.080643412272142
 10
142.54912482367624
 20
25.928410847981773
 10
142.33948791503906
 20
25.79067657470703
 10
142.10780890570746
 20
25.667440592447917
 10
141.85408779568144
 20
25.558702901204427
 10
141.57832458496094
 20
25.464463500976564
 10
141.28051927354602
 20
25.38472239176432
 10
140.96067186143665
 20
25.31947957356771
 10
140.61878234863283
 20
25.268735046386723
 10
140.25485073513454
 20
25.232488810221355
 10
139.86887702094185
 20
25.210740865071614
 10
139.4608612060547
 20
25.2034912109375
 10
138.2010955810547
 20
25.2034912109375
 10
137.7674401855469
 20
25.21303909301758
 10
137.36113138834637
 20
25.231073811848958
 10
136.98216918945317
 20
25.257595367431648
 10
136.6305535888672
 20
25.29260375976563
 10
136.30628458658856
 20
25.336098988850914
 10
136.0093621826172
 20
25.3880810546875
 10
135.73978637695313
 20
25.44854995727539
 10
135.49755716959635
 20
25.517505696614585
 10
135.28267456054687
 20
25.59494827270508
 10
135.0951385498047
 20
25.680877685546875
 10
134.9349491373698
 20
25.775293935139977
 10
134.80210632324219
 20
25.878197021484375
 10
134.6966101074219
 20
25.98958694458008
 10
134.61846048990887
 20
26.109463704427085
 10
134.56765747070312
 20
26.23782730102539
 10
134.56288370768232
 20
26.328235761854383
 10
134.55209838867188
 20
26.41557951185439
 10
134.53530151367193
 20
26.499858551025397
 10
134.5124930826823
 20
26.581072879367408
 10
134.48367309570312
 20
26.659222496880428
 10
134.44884155273436
 20
26.734307403564454
 10
134.40799845377603
 20
26.806327599419486
 10
134.36114379882812
 20
26.875283084445527
 10
134.30827758789061
 20
26.94117385864258
 10
134.24939982096356
 20
27.003999922010635
 10
134.18451049804688
 20
27.063761274549698
 10
134.11360961914062
 20
27.120457916259767
 10
134.0366971842448
 20
27.17408984714084
 10
133.95377319335938
 20
27.22465706719293
 10
133.86483764648438
 20
27.272159576416016
 10
133.71631883409287
 20
27.335928938123917
 10
133.57133612738716
 20
27.38225309583876
 10
133.42988952636722
 20
27.411132049560553
 10
133.291979031033
 20
27.422565799289284
 10
133.15760464138455
 20
27.41655434502496
 10
133.02676635742188
 20
27.39309768676758
 10
132.89946417914496
 20
27.352195824517146
 10
132.77569810655382
 20
27.293848758273654
 10
132.65546813964843
 20
27.21805648803711
 10
132.53877427842883
 20
27.12481901380751
 10
132.42561652289498
 20
27.01413633558485
 10
132.3159948730469
 20
26.886008453369143
 10
132.20990932888455
 20
26.740435367160373
 10
132.107359890408
 20
26.57741707695855
 10
132.0083465576172
 20
26.396953582763672
 10
131.9809997558594
 20
26.344559275309244
 10
131.9555389404297
 20
26.29346155802409
 10
131.93196411132814
 20
26.243660430908207
 10
131.9102752685547
 20
26.19515589396159
 10
131.89047241210938
 20
26.14794794718425
 10
131.8725555419922
 20
26.102036590576173
 10
131.8565246582031
 20
26.05742182413737
 10
131.84237976074218
 20
26.014103647867838
 10
131.8301208496094
 20
25.972082061767576
 10
131.8197479248047
 20
25.93135706583659
 10
131.81126098632814
 20
25.89192866007487
 10
131.8046600341797
 20
25.853796844482424
 10
131.79994506835936
 20
25.816961619059242
 10
131.7971160888672
 20
25.78142298380534
 10
131.79617309570312
 20
25.747180938720703
 10
131.79617309570312
 20
25.468708038330078
 10
131.8204549153646
 20
25.1479758199056
 10
131.89330037434897
 20
24.847046254475913
 10
132.01470947265628
 20
24.56591934204102
 10
132.1846822102865
 20
24.304595082600915
 10
132.4032185872396
 20
24.0630734761556
 10
132.67031860351562
 20
23.84135452270508
 10
132.9859822591146
 20
23.639438222249346
 10
133.35020955403644
 20
23.457324574788412
 10
133.76300048828125
 20
23.295013580322266
 10
134.22435506184897
 20
23.152505238850914
 10
134.7342732747396
 20
23.02979955037435
 10
135.29275512695312
 20
22.92689651489258
 10
135.89980061848956
 20
22.843796132405597
 10
136.55540974934897
 20
22.780498402913413
 10
137.25958251953125
 20
22.737003326416016
 10
138.0817413330078
 20
22.737003326416016
 10
138.99784837510853
 20
22.796175554063588
 10
139.85077562120227
 20
22.892359839545353
 10
140.6405230712891
 20
23.025556182861333
 10
141.36709072536894
 20
23.195764584011506
 10
142.03047858344186
 20
23.402985042995883
 10
142.6306866455078
 20
23.647217559814457
 10
143.16771491156683
 20
23.92846213446723
 10
143.6415633816189
 20
24.24671876695421
 10
144.05223205566406
 20
24.601987457275392
 10
144.39972093370227
 20
24.994268205430775
 10
144.68403001573353
 20
25.423561011420354
 10
144.90515930175783
 20
25.889865875244144
 10
145.06310879177516
 20
26.393182796902128
 10
145.1578784857856
 20
26.933511776394315
 10
145.18946838378906
 20
27.510852813720703
 10
145.184576687283
 20
27.71100073920356
 10
145.16990159776475
 20
27.904783545600047
 10
145.14544311523443
 20
28.09220123291016
 10
145.11120123969187
 20
28.273253801133905
 10
145.06717597113715
 20
28.447941250271274
 10
145.01336730957033
 20
28.61626358032227
 10
144.94977525499132
 20
28.77822079128689
 10
144.87639980740016
 20
28.933812883165146
 10
144.79324096679687
 20
29.083039855957033
 10
144.70029873318143
 20
29.225901709662544
 10
144.59757310655382
 20
29.362398444281684
 10
144.48506408691406
 20
29.492530059814456
 10
144.36277167426215
 20
29.616296556260853
 10
144.2306958685981
 20
29.733697933620878
 10
144.08883666992188
 20
29.84473419189453
 10
143.89458238389759
 20
29.98488484700521
 10
143.65129299587676
 20
30.115369974772136
 10
143.3589685058594
 20
30.23618957519532
 10
143.0176089138455
 20
30.347343648274745
 10
142.62721421983508
 20
30.44883219401042
 10
142.1877844238281
 20
30.540655212402342
 10
141.69931952582465
 20
30.62281270345052
 10
141.16181952582465
 20
30.69530466715495
 10
140.57528442382812
 20
30.758131103515623
 10
139.93971421983508
 20
30.811292012532554
 10
139.25510891384548
 20
30.85478739420573
 10
138.5214685058594
 20
30.88861724853516
 10
137.73879299587674
 20
30.91278157552083
 10
136.90708238389757
 20
30.927280375162763
 10
136.02633666992188
 20
30.932113647460938
 10
135.9756505669488
 20
30.95109110514323
 10
135.92967949761285
 20
30.972661743164064
 10
135.8884234619141
 20
30.996825561523444
 10
135.85188245985245
 20
31.023582560221357
 10
135.82005649142798
 20
31.052932739257816
 10
135.79294555664063
 20
31.08487609863281
 10
135.77054965549044
 20
31.119412638346354
 10
135.75286878797743
 20
31.156542358398436
 10
135.73990295410158
 20
31.19626525878906
 10
135.73165215386285
 20
31.23858133951823
 10
135.72811638726128
 20
31.28349060058594
 10
135.7292956542969
 20
31.33099304199219
 10
135.73518995496963
 20
31.38108866373698
 10
135.74579928927952
 20
31.433777465820313
 10
135.76112365722656
 20
31.489059448242188
 10
135.78175028483074
 20
31.54946957058377
 10
135.8047344970703
 20
31.60693284776476
 10
135.83007629394535
 20
31.661449279785163
 10
135.85777567545574
 20
31.71301886664497
 10
135.88783264160156
 20
31.761641608344185
 10
135.92024719238282
 20
31.80731750488281
 10
135.95501932779948
 20
31.85004655626085
 10
135.99214904785157
 20
31.889828762478302
 10
136.03163635253907
 20
31.926664123535154
 10
136.073481241862
 20
31.960552639431427
 10
136.1176837158203
 20
31.991494310167102
 10
136.16424377441408
 20
32.01948913574219
 10
136.21316141764322
 20
32.04453711615668
 10
136.2644366455078
 20
32.06663825141059
 10
136.3180694580078
 20
32.085792541503906
 10
136.424036593967
 20
32.1199757554796
 10
136.52269565158423
 20
32.15887386745877
 10
136.6140466308594
 20
32.20248687744141
 10
136.69808953179256
 20
32.25081478542752
 10
136.7748243543837
 20
32.3038575914171
 10
136.8442510986328
 20
32.361615295410154
 10
136.90636976453993
 20
32.424087897406686
 10
136.96118035210503
 20
32.49127539740668
 10
137.0086828613281
 20
32.563177795410155
 10
137.0488772922092
 20
32.6397950914171
 10
137.08176364474826
 20
32.72112728542752
 10
137.1073419189453
 20
32.80717437744141
 10
137.12561211480033
 20
32.89793636745877
 10
137.13657423231336
 20
32.9934132554796
 10
137.14022827148438
 20
33.093605041503906
 10
137.1385191514757
 20
33.15825837877061
 10
137.13339179144967
 20
33.221379360622834
 10
137.12484619140628
 20
33.28296798706056
 10
137.11288235134552
 20
33.34302425808377
 10
137.09750027126736
 20
33.40154817369249
 10
137.07869995117187
 20
33.45853973388672
 10
137.05648139105904
 20
33.51399893866645
 10
137.03084459092884
 20
33.56792578803168
 10
137.00178955078124
 20
33.62032028198242
 10
136.96931627061633
 20
33.67118242051866
 10
136.93342475043403
 20
33.72051220364041
 10
136.89411499023439
 20
33.768309631347655
 10
136.85138699001737
 20
33.81457470364041
 10
136.805240749783
 20
33.85930742051866
 10
136.75567626953125
 20
33.90250778198242
 10
136.66167249891495
 20
34.00658908420139
 10
136.57415174696183
 20
34.12080747816298
 10
136.4931140136719
 20
34.24516296386719
 10
136.41855929904514
 20
34.37965554131402
 10
136.3504876030816
 20
34.52428521050348
 10
136.28889892578124
 20
34.67905197143555
 10
136.2337932671441
 20
34.84395582411024
 10
136.18517062717015
 20
35.01899676852756
 10
136.14303100585937
 20
35.2041748046875
 10
136.1073744032118
 20
35.39948993259006
 10
136.07820081922742
 20
35.60494215223524
 10
136.05551025390625
 20
35.82053146362305
 10
136.03930270724828
 20
36.04625786675347
 10
136.02957817925346
 20
36.28212136162652
 10
136.02633666992188
 20
36.52812194824219
 10
136.03600226508246
 20
36.89729983859592
 10
136.06499905056424
 20
37.241017184787324
 10
136.11332702636722
 20
37.559273986816414
 10
136.18098619249133
 20
37.85207024468317
 10
136.26797654893664
 20
38.119405958387595
 10
136.37429809570312
 20
38.36128112792969
 10
136.4999508327908
 20
38.577695753309456
 10
136.64493476019965
 20
38.76864983452691
 10
136.8092498779297
 20
38.93414337158203
 10
136.9928961859809
 20
39.07417636447482
 10
137.1958736843533
 20
39.188748813205294
 10
137.41818237304688
 20
39.277860717773436
 10
137.65982225206164
 20
39.34151207817926
 10
137.92079332139758
 20
39.37970289442274
 10
138.2010955810547
 20
39.392433166503906
 10
138.2818330891927
 20
39.39119293212891
 10
138.36096374511717
 20
39.38747222900391
 10
138.43848754882816
 20
39.38127105712891
 10
138.51440450032553
 20
39.37258941650392
 10
138.5887145996094
 20
39.36142730712891
 10
138.66141784667968
 20
39.347784729003905
 10
138.73251424153645
 20
39.3316616821289
 10
138.80200378417967
 20
39.31305816650391
 10
138.86988647460936
 20
39.29197418212891
 10
138.93616231282553
 20
39.268409729003906
 10
139.00083129882813
 20
39.24236480712891
 10
139.0638934326172
 20
39.21383941650391
 10
139.1253487141927
 20
39.18283355712891
 10
139.1851971435547
 20
39.14934722900391
 10
139.24343872070312
 20
39.113380432128906
 10
139.3780576578776
 20
39.015816141764326
 10
139.50321980794268
 20
38.90365305582683
 10
139.61892517089845
 20
38.77689117431642
 10
139.72517374674482
 20
38.63553049723308
 10
139.82196553548178
 20
38.47957102457683
 10
139.90930053710937
 20
38.309012756347656
 10
139.9871787516276
 20
38.123855692545575
 10
140.05560017903645
 20
37.92409983317057
 10
140.11456481933595
 20
37.709745178222654
 10
140.16407267252603
 20
37.48079172770183
 10
140.20412373860677
 20
37.23723948160807
 10
140.23471801757813
 20
36.97908843994141
 10
140.2558555094401
 20
36.70633860270183
 10
140.26753621419272
 20
36.418989969889324
 10
140.26976013183594
 20
36.117042541503906
 10
140.26427903917102
 20
35.85153376261393
 10
140.24783576117622
 20
35.59958038330079
 10
140.2204302978516
 20
35.361182403564456
 10
140.18206264919704
 20
35.13633982340495
 10
140.13273281521268
 20
34.925052642822266
 10
140.07244079589844
 20
34.72732086181641
 10
140.00118659125434
 20
34.54314448038737
 10
139.9189702012804
 20
34.37252349853516
 10
139.82579162597656
 20
34.215457916259766
 10
139.7216508653429
 20
34.071947733561196
 10
139.60654791937935
 20
33.941992950439456
 10
139.48048278808594
 20
33.82559356689453
 10
139.34345547146268
 20
33.72274958292643
 10
139.19546596950954
 20
33.633460998535156
 10
139.03651428222656
 20
33.5577278137207
 10
138.94822706434465
 20
33.51877105712891
 10
138.86724806043838
 20
33.47616022745769
 10
138.79357727050785
 20
33.42989532470704
 10
138.727214694553
 20
33.37997634887696
 10
138.6681603325738
 20
33.32640329996745
 10
138.61641418457032
 20
33.269176177978515
 10
138.57197625054255
 20
33.20829498291016
 10
138.53484653049046
 20
33.14375971476237
 10
138.50502502441407
 20
33.07557037353516
 10
138.48251173231338
 20
33.003726959228516
 10
138.46730665418838
 20
32.92822947184245
 10
138.45940979003908
 20
32.84907791137695
 10
138.45882113986545
 20
32.76627227783203
 10
138.46554070366753
 20
32.679812571207684
 10
138.4795684814453
 20
32.589698791503906
 10
138.5162268744575
 20
32.50182457817925
 10
138.55901455349394
 20
32.42208357069228
 10
138.6079315185547
 20
32.35047576904297
 10
138.66297776963978
 20
32.28700117323134
 10
138.72415330674914
 20
32.231659783257385
 10
138.7914581298828
 20
32.18445159912109
 10
138.86489223904078
 20
32.14537662082248
 10
138.9444556342231
 20
32.11443484836155
 10
139.0301483154297
 20
32.09162628173828
 10
139.12197028266058
 20
32.07695092095269
 10
139.2199215359158
 20
32.070408766004775
 10
139.32400207519532
 20
32.07199981689453
 10
139.43421190049912
 20
32.08172407362196
 10
139.55055101182725
 20
32.09958153618707
 10
139.6730194091797
 20
32.125572204589844
  0
ENDSEC
  0
SECTION
  2
OBJECTS
  0
DICTIONARY
  5
A
330
0
100
AcDbDictionary
281
1
  3
ACAD_COLOR
350
B
  3
ACAD_GROUP
350
C
  3
ACAD_LAYOUT
350
D
  3
ACAD_MATERIAL
350
E
  3
ACAD_MLEADERSTYLE
350
F
  3
ACAD_MLINESTYLE
350
10
  3
ACAD_PLOTSETTINGS
350
11
  3
ACAD_PLOTSTYLENAME
350
12
  3
ACAD_SCALELIST
350
14
  3
ACAD_TABLESTYLE
350
15
  3
ACAD_VISUALSTYLE
350
16
  3
EZDXF_META
350
2D
  0
DICTIONARY
  5
B
330
A
100
AcDbDictionary
281
1
  0
DICTIONARY
  5
C
330
A
100
AcDbDictionary
281
1
  0
DICTIONARY
  5
D
330
A
100
AcDbDictionary
281
1
  3
Model
350
1A
  3
Layout1
350
1E
  0
DICTIONARY
  5
E
330
A
100
AcDbDictionary
281
1
  3
ByBlock
350
1F
  3
ByLayer
350
20
  3
Global
350
21
  0
DICTIONARY
  5
F
330
A
100
AcDbDictionary
281
1
  3
Standard
350
2C
  0
DICTIONARY
  5
10
330
A
100
AcDbDictionary
281
1
  3
Standard
350
22
  0
DICTIONARY
  5
11
330
A
100
AcDbDictionary
281
1
  0
ACDBDICTIONARYWDFLT
  5
12
330
A
100
AcDbDictionary
281
1
  3
Normal
350
13
100
AcDbDictionaryWithDefault
340
13
  0
ACDBPLACEHOLDER
  5
13
330
12
  0
DICTIONARY
  5
14
330
A
100
AcDbDictionary
281
1
  0
DICTIONARY
  5
15
330
A
100
AcDbDictionary
281
1
  0
DICTIONARY
  5
16
330
A
100
AcDbDictionary
281
1
  0
LAYOUT
  5
1A
330
D
100
AcDbPlotSettings
  1

  4
A3
  6

 40
7.5
 41
20.0
 42
7.5
 43
20.0
 44
420.0
 45
297.0
 46
0.0
 47
0.0
 48
0.0
 49
0.0
140
0.0
141
0.0
142
1.0
143
1.0
 70
1024
 72
1
 73
0
 74
5
  7

 75
16
 76
0
 77
2
 78
300
147
1.0
148
0.0
149
0.0
100
AcDbLayout
  1
Model
 70
1
 71
0
 10
0.0
 20
0.0
 11
420.0
 21
297.0
 12
0.0
 22
0.0
 32
0.0
 14
1e+20
 24
1e+20
 34
1e+20
 15
-1e+20
 25
-1e+20
 35
-1e+20
146
0.0
 13
0.0
 23
0.0
 33
0.0
 16
1.0
 26
0.0
 36
0.0
 17
0.0
 27
1.0
 37
0.0
 76
1
330
17
  0
LAYOUT
  5
1E
330
D
100
AcDbPlotSettings
  1

  4
A3
  6

 40
7.5
 41
20.0
 42
7.5
 43
20.0
 44
420.0
 45
297.0
 46
0.0
 47
0.0
 48
0.0
 49
0.0
140
0.0
141
0.0
142
1.0
143
1.0
 70
0
 72
1
 73
0
 74
5
  7

 75
16
 76
0
 77
2
 78
300
147
1.0
148
0.0
149
0.0
100
AcDbLayout
  1
Layout1
 70
1
 71
1
 10
0.0
 20
0.0
 11
420.0
 21
297.0
 12
0.0
 22
0.0
 32
0.0
 14
1e+20
 24
1e+20
 34
1e+20
 15
-1e+20
 25
-1e+20
 35
-1e+20
146
0.0
 13
0.0
 23
0.0
 33
0.0
 16
1.0
 26
0.0
 36
0.0
 17
0.0
 27
1.0
 37
0.0
 76
1
330
1B
  0
MATERIAL
  5
1F
102
{ACAD_REACTORS
330
E
102
}
330
E
100
AcDbMaterial
  1
ByBlock
  2

 70
0
 40
1.0
 71
1
 41
1.0
 91
-1023410177
 42
1.0
 72
1
  3

 73
1
 74
1
 75
1
 44
0.5
 73
0
 45
1.0
 46
1.0
 77
1
  4

 78
1
 79
1
170
1
 48
1.0
171
1
  6

172
1
173
1
174
1
140
1.0
141
1.0
175
1
  7

176
1
177
1
178
1
143
1.0
179
1
  8

270
1
271
1
272
1
145
1.0
146
1.0
273
1
  9

274
1
275
1
276
1
 42
1.0
 72
1
  3

 73
1
 74
1
 75
1
 94
63
  0
MATERIAL
  5
20
102
{ACAD_REACTORS
330
E
102
}
330
E
100
AcDbMaterial
  1
ByLayer
  2

 70
0
 40
1.0
 71
1
 41
1.0
 91
-1023410177
 42
1.0
 72
1
  3

 73
1
 74
1
 75
1
 44
0.5
 73
0
 45
1.0
 46
1.0
 77
1
  4

 78
1
 79
1
170
1
 48
1.0
171
1
  6

172
1
173
1
174
1
140
1.0
141
1.0
175
1
  7

176
1
177
1
178
1
143
1.0
179
1
  8

270
1
271
1
272
1
145
1.0
146
1.0
273
1
  9

274
1
275
1
276
1
 42
1.0
 72
1
  3

 73
1
 74
1
 75
1
 94
63
  0
MATERIAL
  5
21
102
{ACAD_REACTORS
330
E
102
}
330
E
100
AcDbMaterial
  1
Global
  2

 70
0
 40
1.0
 71
1
 41
1.0
 91
-1023410177
 42
1.0
 72
1
  3

 73
1
 74
1
 75
1
 44
0.5
 73
0
 45
1.0
 46
1.0
 77
1
  4

 78
1
 79
1
170
1
 48
1.0
171
1
  6

172
1
173
1
174
1
140
1.0
141
1.0
175
1
  7

176
1
177
1
178
1
143
1.0
179
1
  8

270
1
271
1
272
1
145
1.0
146
1.0
273
1
  9

274
1
275
1
276
1
 42
1.0
 72
1
  3

 73
1
 74
1
 75
1
 94
63
  0
MLINESTYLE
  5
22
102
{ACAD_REACTORS
330
10
102
}
330
10
100
AcDbMlineStyle
  2
Standard
 70
0
  3

 62
256
 51
90.0
 52
90.0
 71
2
 49
0.5
 62
256
  6
BYLAYER
 49
-0.5
 62
256
  6
BYLAYER
  0
MLEADERSTYLE
  5
2C
102
{ACAD_REACTORS
330
F
102
}
330
F
100
AcDbMLeaderStyle
179
2
170
2
171
1
172
0
 90
2
 40
0.0
 41
0.0
173
1
 91
-1056964608
 92
-2
290
1
 42
2.0
291
1
 43
8.0
  3
Standard
 44
4.0
300

342
29
174
1
175
1
176
0
178
1
 93
-1056964608
 45
4.0
292
0
297
0
 46
4.0
 94
-1056964608
 47
1.0
 49
1.0
140
1.0
294
1
141
0.0
177
0
142
1.0
295
0
296
0
143
3.75
271
0
272
9
273
9
  0
DICTIONARY
  5
2D
330
A
100
AcDbDictionary
280
1
281
1
  3
CREATED_BY_EZDXF
350
2E
  3
WRITTEN_BY_EZDXF
350
3D
  0
DICTIONARYVAR
  5
2E
330
2D
100
DictionaryVariables
280
0
  1
1.4.3 @ 2025-12-07T12:36:23.614980+00:00
  0
DICTIONARYVAR
  5
3D
330
2D
100
DictionaryVariables
280
0
  1
1.4.3 @ 2025-12-07T12:36:23.637468+00:00
  0
ENDSEC
  0
EOF
